<?xml version="1.0" encoding="utf-8" standalone="no"?>
<!DOCTYPE svg PUBLIC "-//W3C//DTD SVG 1.1//EN"
  "http://www.w3.org/Graphics/SVG/1.1/DTD/svg11.dtd">
<svg height="345.6pt" version="1.1" viewBox="0 0 460.8 345.6" width="460.8pt" xmlns="http://www.w3.org/2000/svg" xmlns:xlink="http://www.w3.org/1999/xlink">
 <metadata>
  <rdf:RDF xmlns:cc="http://creativecommons.org/ns#" xmlns:dc="http://purl.org/dc/elements/1.1/" xmlns:rdf="http://www.w3.org/1999/02/22-rdf-syntax-ns#">
   <cc:Work>
    <dc:type rdf:resource="http://purl.org/dc/dcmitype/StillImage"/>
    <dc:date>2022-01-10T21:01:49.003214</dc:date>
    <dc:format>image/svg+xml</dc:format>
    <dc:creator>
     <cc:Agent>
      <dc:title>Matplotlib v3.4.3, https://matplotlib.org/</dc:title>
     </cc:Agent>
    </dc:creator>
   </cc:Work>
  </rdf:RDF>
 </metadata>
 <defs>
  <style type="text/css">*{stroke-linecap:butt;stroke-linejoin:round;}</style>
 </defs>
 <g id="figure_1">
  <g id="patch_1">
   <path d="M 0 345.6 
L 460.8 345.6 
L 460.8 0 
L 0 0 
z
" style="fill:#ffffff;"/>
  </g>
  <g id="axes_1">
   <g id="patch_2">
    <path d="M 57.6 307.584 
L 414.72 307.584 
L 414.72 41.472 
L 57.6 41.472 
z
" style="fill:#ffffff;"/>
   </g>
   <g id="matplotlib.axis_1">
    <g id="xtick_1">
     <g id="line2d_1">
      <path clip-path="url(#p53e3e2cb60)" d="M 73.832727 307.584 
L 73.832727 41.472 
" style="fill:none;stroke:#b0b0b0;stroke-linecap:square;stroke-width:0.8;"/>
     </g>
     <g id="line2d_2">
      <defs>
       <path d="M 0 0 
L 0 3.5 
" id="m66ea9b512f" style="stroke:#000000;stroke-width:0.8;"/>
      </defs>
      <g>
       <use style="stroke:#000000;stroke-width:0.8;" x="73.832727" xlink:href="#m66ea9b512f" y="307.584"/>
      </g>
     </g>
     <g id="text_1">
      <!-- −1.00 -->
      <g transform="translate(58.510071 322.182437)scale(0.1 -0.1)">
       <defs>
        <path d="M 678 2272 
L 4684 2272 
L 4684 1741 
L 678 1741 
L 678 2272 
z
" id="DejaVuSans-2212" transform="scale(0.015625)"/>
        <path d="M 794 531 
L 1825 531 
L 1825 4091 
L 703 3866 
L 703 4441 
L 1819 4666 
L 2450 4666 
L 2450 531 
L 3481 531 
L 3481 0 
L 794 0 
L 794 531 
z
" id="DejaVuSans-31" transform="scale(0.015625)"/>
        <path d="M 684 794 
L 1344 794 
L 1344 0 
L 684 0 
L 684 794 
z
" id="DejaVuSans-2e" transform="scale(0.015625)"/>
        <path d="M 2034 4250 
Q 1547 4250 1301 3770 
Q 1056 3291 1056 2328 
Q 1056 1369 1301 889 
Q 1547 409 2034 409 
Q 2525 409 2770 889 
Q 3016 1369 3016 2328 
Q 3016 3291 2770 3770 
Q 2525 4250 2034 4250 
z
M 2034 4750 
Q 2819 4750 3233 4129 
Q 3647 3509 3647 2328 
Q 3647 1150 3233 529 
Q 2819 -91 2034 -91 
Q 1250 -91 836 529 
Q 422 1150 422 2328 
Q 422 3509 836 4129 
Q 1250 4750 2034 4750 
z
" id="DejaVuSans-30" transform="scale(0.015625)"/>
       </defs>
       <use xlink:href="#DejaVuSans-2212"/>
       <use x="83.789062" xlink:href="#DejaVuSans-31"/>
       <use x="147.412109" xlink:href="#DejaVuSans-2e"/>
       <use x="179.199219" xlink:href="#DejaVuSans-30"/>
       <use x="242.822266" xlink:href="#DejaVuSans-30"/>
      </g>
     </g>
    </g>
    <g id="xtick_2">
     <g id="line2d_3">
      <path clip-path="url(#p53e3e2cb60)" d="M 114.414545 307.584 
L 114.414545 41.472 
" style="fill:none;stroke:#b0b0b0;stroke-linecap:square;stroke-width:0.8;"/>
     </g>
     <g id="line2d_4">
      <g>
       <use style="stroke:#000000;stroke-width:0.8;" x="114.414545" xlink:href="#m66ea9b512f" y="307.584"/>
      </g>
     </g>
     <g id="text_2">
      <!-- −0.75 -->
      <g transform="translate(99.091889 322.182437)scale(0.1 -0.1)">
       <defs>
        <path d="M 525 4666 
L 3525 4666 
L 3525 4397 
L 1831 0 
L 1172 0 
L 2766 4134 
L 525 4134 
L 525 4666 
z
" id="DejaVuSans-37" transform="scale(0.015625)"/>
        <path d="M 691 4666 
L 3169 4666 
L 3169 4134 
L 1269 4134 
L 1269 2991 
Q 1406 3038 1543 3061 
Q 1681 3084 1819 3084 
Q 2600 3084 3056 2656 
Q 3513 2228 3513 1497 
Q 3513 744 3044 326 
Q 2575 -91 1722 -91 
Q 1428 -91 1123 -41 
Q 819 9 494 109 
L 494 744 
Q 775 591 1075 516 
Q 1375 441 1709 441 
Q 2250 441 2565 725 
Q 2881 1009 2881 1497 
Q 2881 1984 2565 2268 
Q 2250 2553 1709 2553 
Q 1456 2553 1204 2497 
Q 953 2441 691 2322 
L 691 4666 
z
" id="DejaVuSans-35" transform="scale(0.015625)"/>
       </defs>
       <use xlink:href="#DejaVuSans-2212"/>
       <use x="83.789062" xlink:href="#DejaVuSans-30"/>
       <use x="147.412109" xlink:href="#DejaVuSans-2e"/>
       <use x="179.199219" xlink:href="#DejaVuSans-37"/>
       <use x="242.822266" xlink:href="#DejaVuSans-35"/>
      </g>
     </g>
    </g>
    <g id="xtick_3">
     <g id="line2d_5">
      <path clip-path="url(#p53e3e2cb60)" d="M 154.996364 307.584 
L 154.996364 41.472 
" style="fill:none;stroke:#b0b0b0;stroke-linecap:square;stroke-width:0.8;"/>
     </g>
     <g id="line2d_6">
      <g>
       <use style="stroke:#000000;stroke-width:0.8;" x="154.996364" xlink:href="#m66ea9b512f" y="307.584"/>
      </g>
     </g>
     <g id="text_3">
      <!-- −0.50 -->
      <g transform="translate(139.673707 322.182437)scale(0.1 -0.1)">
       <use xlink:href="#DejaVuSans-2212"/>
       <use x="83.789062" xlink:href="#DejaVuSans-30"/>
       <use x="147.412109" xlink:href="#DejaVuSans-2e"/>
       <use x="179.199219" xlink:href="#DejaVuSans-35"/>
       <use x="242.822266" xlink:href="#DejaVuSans-30"/>
      </g>
     </g>
    </g>
    <g id="xtick_4">
     <g id="line2d_7">
      <path clip-path="url(#p53e3e2cb60)" d="M 195.578182 307.584 
L 195.578182 41.472 
" style="fill:none;stroke:#b0b0b0;stroke-linecap:square;stroke-width:0.8;"/>
     </g>
     <g id="line2d_8">
      <g>
       <use style="stroke:#000000;stroke-width:0.8;" x="195.578182" xlink:href="#m66ea9b512f" y="307.584"/>
      </g>
     </g>
     <g id="text_4">
      <!-- −0.25 -->
      <g transform="translate(180.255526 322.182437)scale(0.1 -0.1)">
       <defs>
        <path d="M 1228 531 
L 3431 531 
L 3431 0 
L 469 0 
L 469 531 
Q 828 903 1448 1529 
Q 2069 2156 2228 2338 
Q 2531 2678 2651 2914 
Q 2772 3150 2772 3378 
Q 2772 3750 2511 3984 
Q 2250 4219 1831 4219 
Q 1534 4219 1204 4116 
Q 875 4013 500 3803 
L 500 4441 
Q 881 4594 1212 4672 
Q 1544 4750 1819 4750 
Q 2544 4750 2975 4387 
Q 3406 4025 3406 3419 
Q 3406 3131 3298 2873 
Q 3191 2616 2906 2266 
Q 2828 2175 2409 1742 
Q 1991 1309 1228 531 
z
" id="DejaVuSans-32" transform="scale(0.015625)"/>
       </defs>
       <use xlink:href="#DejaVuSans-2212"/>
       <use x="83.789062" xlink:href="#DejaVuSans-30"/>
       <use x="147.412109" xlink:href="#DejaVuSans-2e"/>
       <use x="179.199219" xlink:href="#DejaVuSans-32"/>
       <use x="242.822266" xlink:href="#DejaVuSans-35"/>
      </g>
     </g>
    </g>
    <g id="xtick_5">
     <g id="line2d_9">
      <path clip-path="url(#p53e3e2cb60)" d="M 236.16 307.584 
L 236.16 41.472 
" style="fill:none;stroke:#b0b0b0;stroke-linecap:square;stroke-width:0.8;"/>
     </g>
     <g id="line2d_10">
      <g>
       <use style="stroke:#000000;stroke-width:0.8;" x="236.16" xlink:href="#m66ea9b512f" y="307.584"/>
      </g>
     </g>
     <g id="text_5">
      <!-- 0.00 -->
      <g transform="translate(225.027187 322.182437)scale(0.1 -0.1)">
       <use xlink:href="#DejaVuSans-30"/>
       <use x="63.623047" xlink:href="#DejaVuSans-2e"/>
       <use x="95.410156" xlink:href="#DejaVuSans-30"/>
       <use x="159.033203" xlink:href="#DejaVuSans-30"/>
      </g>
     </g>
    </g>
    <g id="xtick_6">
     <g id="line2d_11">
      <path clip-path="url(#p53e3e2cb60)" d="M 276.741818 307.584 
L 276.741818 41.472 
" style="fill:none;stroke:#b0b0b0;stroke-linecap:square;stroke-width:0.8;"/>
     </g>
     <g id="line2d_12">
      <g>
       <use style="stroke:#000000;stroke-width:0.8;" x="276.741818" xlink:href="#m66ea9b512f" y="307.584"/>
      </g>
     </g>
     <g id="text_6">
      <!-- 0.25 -->
      <g transform="translate(265.609006 322.182437)scale(0.1 -0.1)">
       <use xlink:href="#DejaVuSans-30"/>
       <use x="63.623047" xlink:href="#DejaVuSans-2e"/>
       <use x="95.410156" xlink:href="#DejaVuSans-32"/>
       <use x="159.033203" xlink:href="#DejaVuSans-35"/>
      </g>
     </g>
    </g>
    <g id="xtick_7">
     <g id="line2d_13">
      <path clip-path="url(#p53e3e2cb60)" d="M 317.323636 307.584 
L 317.323636 41.472 
" style="fill:none;stroke:#b0b0b0;stroke-linecap:square;stroke-width:0.8;"/>
     </g>
     <g id="line2d_14">
      <g>
       <use style="stroke:#000000;stroke-width:0.8;" x="317.323636" xlink:href="#m66ea9b512f" y="307.584"/>
      </g>
     </g>
     <g id="text_7">
      <!-- 0.50 -->
      <g transform="translate(306.190824 322.182437)scale(0.1 -0.1)">
       <use xlink:href="#DejaVuSans-30"/>
       <use x="63.623047" xlink:href="#DejaVuSans-2e"/>
       <use x="95.410156" xlink:href="#DejaVuSans-35"/>
       <use x="159.033203" xlink:href="#DejaVuSans-30"/>
      </g>
     </g>
    </g>
    <g id="xtick_8">
     <g id="line2d_15">
      <path clip-path="url(#p53e3e2cb60)" d="M 357.905455 307.584 
L 357.905455 41.472 
" style="fill:none;stroke:#b0b0b0;stroke-linecap:square;stroke-width:0.8;"/>
     </g>
     <g id="line2d_16">
      <g>
       <use style="stroke:#000000;stroke-width:0.8;" x="357.905455" xlink:href="#m66ea9b512f" y="307.584"/>
      </g>
     </g>
     <g id="text_8">
      <!-- 0.75 -->
      <g transform="translate(346.772642 322.182437)scale(0.1 -0.1)">
       <use xlink:href="#DejaVuSans-30"/>
       <use x="63.623047" xlink:href="#DejaVuSans-2e"/>
       <use x="95.410156" xlink:href="#DejaVuSans-37"/>
       <use x="159.033203" xlink:href="#DejaVuSans-35"/>
      </g>
     </g>
    </g>
    <g id="xtick_9">
     <g id="line2d_17">
      <path clip-path="url(#p53e3e2cb60)" d="M 398.487273 307.584 
L 398.487273 41.472 
" style="fill:none;stroke:#b0b0b0;stroke-linecap:square;stroke-width:0.8;"/>
     </g>
     <g id="line2d_18">
      <g>
       <use style="stroke:#000000;stroke-width:0.8;" x="398.487273" xlink:href="#m66ea9b512f" y="307.584"/>
      </g>
     </g>
     <g id="text_9">
      <!-- 1.00 -->
      <g transform="translate(387.35446 322.182437)scale(0.1 -0.1)">
       <use xlink:href="#DejaVuSans-31"/>
       <use x="63.623047" xlink:href="#DejaVuSans-2e"/>
       <use x="95.410156" xlink:href="#DejaVuSans-30"/>
       <use x="159.033203" xlink:href="#DejaVuSans-30"/>
      </g>
     </g>
    </g>
    <g id="text_10">
     <!-- x -->
     <g transform="translate(233.200625 335.860562)scale(0.1 -0.1)">
      <defs>
       <path d="M 3513 3500 
L 2247 1797 
L 3578 0 
L 2900 0 
L 1881 1375 
L 863 0 
L 184 0 
L 1544 1831 
L 300 3500 
L 978 3500 
L 1906 2253 
L 2834 3500 
L 3513 3500 
z
" id="DejaVuSans-78" transform="scale(0.015625)"/>
      </defs>
      <use xlink:href="#DejaVuSans-78"/>
     </g>
    </g>
   </g>
   <g id="matplotlib.axis_2">
    <g id="ytick_1">
     <g id="line2d_19">
      <path clip-path="url(#p53e3e2cb60)" d="M 57.6 295.488 
L 414.72 295.488 
" style="fill:none;stroke:#b0b0b0;stroke-linecap:square;stroke-width:0.8;"/>
     </g>
     <g id="line2d_20">
      <defs>
       <path d="M 0 0 
L -3.5 0 
" id="mce7709221f" style="stroke:#000000;stroke-width:0.8;"/>
      </defs>
      <g>
       <use style="stroke:#000000;stroke-width:0.8;" x="57.6" xlink:href="#mce7709221f" y="295.488"/>
      </g>
     </g>
     <g id="text_11">
      <!-- 0.0 -->
      <g transform="translate(34.696875 299.287219)scale(0.1 -0.1)">
       <use xlink:href="#DejaVuSans-30"/>
       <use x="63.623047" xlink:href="#DejaVuSans-2e"/>
       <use x="95.410156" xlink:href="#DejaVuSans-30"/>
      </g>
     </g>
    </g>
    <g id="ytick_2">
     <g id="line2d_21">
      <path clip-path="url(#p53e3e2cb60)" d="M 57.6 246.980584 
L 414.72 246.980584 
" style="fill:none;stroke:#b0b0b0;stroke-linecap:square;stroke-width:0.8;"/>
     </g>
     <g id="line2d_22">
      <g>
       <use style="stroke:#000000;stroke-width:0.8;" x="57.6" xlink:href="#mce7709221f" y="246.980584"/>
      </g>
     </g>
     <g id="text_12">
      <!-- 0.2 -->
      <g transform="translate(34.696875 250.779803)scale(0.1 -0.1)">
       <use xlink:href="#DejaVuSans-30"/>
       <use x="63.623047" xlink:href="#DejaVuSans-2e"/>
       <use x="95.410156" xlink:href="#DejaVuSans-32"/>
      </g>
     </g>
    </g>
    <g id="ytick_3">
     <g id="line2d_23">
      <path clip-path="url(#p53e3e2cb60)" d="M 57.6 198.473168 
L 414.72 198.473168 
" style="fill:none;stroke:#b0b0b0;stroke-linecap:square;stroke-width:0.8;"/>
     </g>
     <g id="line2d_24">
      <g>
       <use style="stroke:#000000;stroke-width:0.8;" x="57.6" xlink:href="#mce7709221f" y="198.473168"/>
      </g>
     </g>
     <g id="text_13">
      <!-- 0.4 -->
      <g transform="translate(34.696875 202.272387)scale(0.1 -0.1)">
       <defs>
        <path d="M 2419 4116 
L 825 1625 
L 2419 1625 
L 2419 4116 
z
M 2253 4666 
L 3047 4666 
L 3047 1625 
L 3713 1625 
L 3713 1100 
L 3047 1100 
L 3047 0 
L 2419 0 
L 2419 1100 
L 313 1100 
L 313 1709 
L 2253 4666 
z
" id="DejaVuSans-34" transform="scale(0.015625)"/>
       </defs>
       <use xlink:href="#DejaVuSans-30"/>
       <use x="63.623047" xlink:href="#DejaVuSans-2e"/>
       <use x="95.410156" xlink:href="#DejaVuSans-34"/>
      </g>
     </g>
    </g>
    <g id="ytick_4">
     <g id="line2d_25">
      <path clip-path="url(#p53e3e2cb60)" d="M 57.6 149.965752 
L 414.72 149.965752 
" style="fill:none;stroke:#b0b0b0;stroke-linecap:square;stroke-width:0.8;"/>
     </g>
     <g id="line2d_26">
      <g>
       <use style="stroke:#000000;stroke-width:0.8;" x="57.6" xlink:href="#mce7709221f" y="149.965752"/>
      </g>
     </g>
     <g id="text_14">
      <!-- 0.6 -->
      <g transform="translate(34.696875 153.764971)scale(0.1 -0.1)">
       <defs>
        <path d="M 2113 2584 
Q 1688 2584 1439 2293 
Q 1191 2003 1191 1497 
Q 1191 994 1439 701 
Q 1688 409 2113 409 
Q 2538 409 2786 701 
Q 3034 994 3034 1497 
Q 3034 2003 2786 2293 
Q 2538 2584 2113 2584 
z
M 3366 4563 
L 3366 3988 
Q 3128 4100 2886 4159 
Q 2644 4219 2406 4219 
Q 1781 4219 1451 3797 
Q 1122 3375 1075 2522 
Q 1259 2794 1537 2939 
Q 1816 3084 2150 3084 
Q 2853 3084 3261 2657 
Q 3669 2231 3669 1497 
Q 3669 778 3244 343 
Q 2819 -91 2113 -91 
Q 1303 -91 875 529 
Q 447 1150 447 2328 
Q 447 3434 972 4092 
Q 1497 4750 2381 4750 
Q 2619 4750 2861 4703 
Q 3103 4656 3366 4563 
z
" id="DejaVuSans-36" transform="scale(0.015625)"/>
       </defs>
       <use xlink:href="#DejaVuSans-30"/>
       <use x="63.623047" xlink:href="#DejaVuSans-2e"/>
       <use x="95.410156" xlink:href="#DejaVuSans-36"/>
      </g>
     </g>
    </g>
    <g id="ytick_5">
     <g id="line2d_27">
      <path clip-path="url(#p53e3e2cb60)" d="M 57.6 101.458336 
L 414.72 101.458336 
" style="fill:none;stroke:#b0b0b0;stroke-linecap:square;stroke-width:0.8;"/>
     </g>
     <g id="line2d_28">
      <g>
       <use style="stroke:#000000;stroke-width:0.8;" x="57.6" xlink:href="#mce7709221f" y="101.458336"/>
      </g>
     </g>
     <g id="text_15">
      <!-- 0.8 -->
      <g transform="translate(34.696875 105.257555)scale(0.1 -0.1)">
       <defs>
        <path d="M 2034 2216 
Q 1584 2216 1326 1975 
Q 1069 1734 1069 1313 
Q 1069 891 1326 650 
Q 1584 409 2034 409 
Q 2484 409 2743 651 
Q 3003 894 3003 1313 
Q 3003 1734 2745 1975 
Q 2488 2216 2034 2216 
z
M 1403 2484 
Q 997 2584 770 2862 
Q 544 3141 544 3541 
Q 544 4100 942 4425 
Q 1341 4750 2034 4750 
Q 2731 4750 3128 4425 
Q 3525 4100 3525 3541 
Q 3525 3141 3298 2862 
Q 3072 2584 2669 2484 
Q 3125 2378 3379 2068 
Q 3634 1759 3634 1313 
Q 3634 634 3220 271 
Q 2806 -91 2034 -91 
Q 1263 -91 848 271 
Q 434 634 434 1313 
Q 434 1759 690 2068 
Q 947 2378 1403 2484 
z
M 1172 3481 
Q 1172 3119 1398 2916 
Q 1625 2713 2034 2713 
Q 2441 2713 2670 2916 
Q 2900 3119 2900 3481 
Q 2900 3844 2670 4047 
Q 2441 4250 2034 4250 
Q 1625 4250 1398 4047 
Q 1172 3844 1172 3481 
z
" id="DejaVuSans-38" transform="scale(0.015625)"/>
       </defs>
       <use xlink:href="#DejaVuSans-30"/>
       <use x="63.623047" xlink:href="#DejaVuSans-2e"/>
       <use x="95.410156" xlink:href="#DejaVuSans-38"/>
      </g>
     </g>
    </g>
    <g id="ytick_6">
     <g id="line2d_29">
      <path clip-path="url(#p53e3e2cb60)" d="M 57.6 52.95092 
L 414.72 52.95092 
" style="fill:none;stroke:#b0b0b0;stroke-linecap:square;stroke-width:0.8;"/>
     </g>
     <g id="line2d_30">
      <g>
       <use style="stroke:#000000;stroke-width:0.8;" x="57.6" xlink:href="#mce7709221f" y="52.95092"/>
      </g>
     </g>
     <g id="text_16">
      <!-- 1.0 -->
      <g transform="translate(34.696875 56.750139)scale(0.1 -0.1)">
       <use xlink:href="#DejaVuSans-31"/>
       <use x="63.623047" xlink:href="#DejaVuSans-2e"/>
       <use x="95.410156" xlink:href="#DejaVuSans-30"/>
      </g>
     </g>
    </g>
    <g id="text_17">
     <!-- |f(x)−s(x)| -->
     <g transform="translate(28.339062 200.173313)rotate(-90)scale(0.1 -0.1)">
      <defs>
       <path d="M 1344 4891 
L 1344 -1509 
L 813 -1509 
L 813 4891 
L 1344 4891 
z
" id="DejaVuSans-7c" transform="scale(0.015625)"/>
       <path d="M 2375 4863 
L 2375 4384 
L 1825 4384 
Q 1516 4384 1395 4259 
Q 1275 4134 1275 3809 
L 1275 3500 
L 2222 3500 
L 2222 3053 
L 1275 3053 
L 1275 0 
L 697 0 
L 697 3053 
L 147 3053 
L 147 3500 
L 697 3500 
L 697 3744 
Q 697 4328 969 4595 
Q 1241 4863 1831 4863 
L 2375 4863 
z
" id="DejaVuSans-66" transform="scale(0.015625)"/>
       <path d="M 1984 4856 
Q 1566 4138 1362 3434 
Q 1159 2731 1159 2009 
Q 1159 1288 1364 580 
Q 1569 -128 1984 -844 
L 1484 -844 
Q 1016 -109 783 600 
Q 550 1309 550 2009 
Q 550 2706 781 3412 
Q 1013 4119 1484 4856 
L 1984 4856 
z
" id="DejaVuSans-28" transform="scale(0.015625)"/>
       <path d="M 513 4856 
L 1013 4856 
Q 1481 4119 1714 3412 
Q 1947 2706 1947 2009 
Q 1947 1309 1714 600 
Q 1481 -109 1013 -844 
L 513 -844 
Q 928 -128 1133 580 
Q 1338 1288 1338 2009 
Q 1338 2731 1133 3434 
Q 928 4138 513 4856 
z
" id="DejaVuSans-29" transform="scale(0.015625)"/>
       <path d="M 2834 3397 
L 2834 2853 
Q 2591 2978 2328 3040 
Q 2066 3103 1784 3103 
Q 1356 3103 1142 2972 
Q 928 2841 928 2578 
Q 928 2378 1081 2264 
Q 1234 2150 1697 2047 
L 1894 2003 
Q 2506 1872 2764 1633 
Q 3022 1394 3022 966 
Q 3022 478 2636 193 
Q 2250 -91 1575 -91 
Q 1294 -91 989 -36 
Q 684 19 347 128 
L 347 722 
Q 666 556 975 473 
Q 1284 391 1588 391 
Q 1994 391 2212 530 
Q 2431 669 2431 922 
Q 2431 1156 2273 1281 
Q 2116 1406 1581 1522 
L 1381 1569 
Q 847 1681 609 1914 
Q 372 2147 372 2553 
Q 372 3047 722 3315 
Q 1072 3584 1716 3584 
Q 2034 3584 2315 3537 
Q 2597 3491 2834 3397 
z
" id="DejaVuSans-73" transform="scale(0.015625)"/>
      </defs>
      <use xlink:href="#DejaVuSans-7c"/>
      <use x="33.691406" xlink:href="#DejaVuSans-66"/>
      <use x="68.896484" xlink:href="#DejaVuSans-28"/>
      <use x="107.910156" xlink:href="#DejaVuSans-78"/>
      <use x="167.089844" xlink:href="#DejaVuSans-29"/>
      <use x="206.103516" xlink:href="#DejaVuSans-2212"/>
      <use x="289.892578" xlink:href="#DejaVuSans-73"/>
      <use x="341.992188" xlink:href="#DejaVuSans-28"/>
      <use x="381.005859" xlink:href="#DejaVuSans-78"/>
      <use x="440.185547" xlink:href="#DejaVuSans-29"/>
      <use x="479.199219" xlink:href="#DejaVuSans-7c"/>
     </g>
    </g>
   </g>
   <g id="line2d_31">
    <path clip-path="url(#p53e3e2cb60)" d="M 73.832727 286.159651 
L 77.112066 285.786556 
L 80.391405 285.390959 
L 83.670744 284.971042 
L 86.950083 284.524804 
L 90.229421 284.050038 
L 93.50876 283.544305 
L 96.788099 283.004905 
L 100.067438 282.428844 
L 103.346777 281.812797 
L 106.626116 281.153059 
L 109.905455 280.445501 
L 113.184793 279.685506 
L 116.464132 278.867904 
L 119.743471 277.986889 
L 123.02281 277.035933 
L 126.302149 276.007677 
L 129.581488 274.893802 
L 132.860826 273.68489 
L 136.140165 272.370248 
L 139.419504 270.937715 
L 142.698843 269.373418 
L 145.978182 267.661508 
L 149.257521 265.78383 
L 152.53686 263.719552 
L 155.816198 261.444722 
L 159.095537 258.931762 
L 162.374876 256.148876 
L 165.654215 253.059379 
L 168.933554 249.620946 
L 172.212893 245.784786 
L 175.492231 241.494771 
L 178.77157 236.686587 
L 182.050909 231.287008 
L 185.330248 225.21348 
L 188.609587 218.374332 
L 191.888926 210.670119 
L 195.168264 201.996852 
L 198.447603 192.25227 
L 201.726942 181.346738 
L 205.006281 169.220821 
L 208.28562 155.871771 
L 211.564959 141.390637 
L 214.844298 126.009466 
L 218.123636 110.153062 
L 221.402975 94.481242 
L 224.682314 79.89704 
L 227.961653 67.490118 
L 231.240992 58.393853 
L 234.520331 53.568 
L 237.799669 53.568 
L 241.079008 58.393853 
L 244.358347 67.490118 
L 247.637686 79.89704 
L 250.917025 94.481242 
L 254.196364 110.153062 
L 257.475702 126.009466 
L 260.755041 141.390637 
L 264.03438 155.871771 
L 267.313719 169.220821 
L 270.593058 181.346738 
L 273.872397 192.25227 
L 277.151736 201.996852 
L 280.431074 210.670119 
L 283.710413 218.374332 
L 286.989752 225.21348 
L 290.269091 231.287008 
L 293.54843 236.686587 
L 296.827769 241.494771 
L 300.107107 245.784786 
L 303.386446 249.620946 
L 306.665785 253.059379 
L 309.945124 256.148876 
L 313.224463 258.931762 
L 316.503802 261.444722 
L 319.78314 263.719552 
L 323.062479 265.78383 
L 326.341818 267.661508 
L 329.621157 269.373418 
L 332.900496 270.937715 
L 336.179835 272.370248 
L 339.459174 273.68489 
L 342.738512 274.893802 
L 346.017851 276.007677 
L 349.29719 277.035933 
L 352.576529 277.986889 
L 355.855868 278.867904 
L 359.135207 279.685506 
L 362.414545 280.445501 
L 365.693884 281.153059 
L 368.973223 281.812797 
L 372.252562 282.428844 
L 375.531901 283.004905 
L 378.81124 283.544305 
L 382.090579 284.050038 
L 385.369917 284.524804 
L 388.649256 284.971042 
L 391.928595 285.390959 
L 395.207934 285.786556 
L 398.487273 286.159651 
" style="fill:none;stroke:#008000;stroke-linecap:square;stroke-width:1.5;"/>
   </g>
   <g id="line2d_32">
    <path clip-path="url(#p53e3e2cb60)" d="M 73.832727 295.488 
L 77.112066 292.753113 
L 80.391405 290.028459 
L 83.670744 287.344953 
L 86.950083 284.733331 
L 90.229421 282.224118 
L 93.50876 279.847612 
L 96.788099 277.633846 
L 100.067438 275.612562 
L 103.346777 273.813167 
L 106.626116 272.264694 
L 109.905455 270.995747 
L 113.184793 270.034443 
L 116.464132 269.408346 
L 119.743471 269.144387 
L 123.02281 269.268771 
L 126.302149 269.806873 
L 129.581488 270.78311 
L 132.860826 272.220798 
L 136.140165 274.14198 
L 139.419504 276.567226 
L 142.698843 279.515401 
L 145.978182 283.003389 
L 149.257521 287.04577 
L 152.53686 291.654446 
L 155.816198 294.138119 
L 159.095537 288.413916 
L 162.374876 282.262551 
L 165.654215 275.811185 
L 168.933554 269.192615 
L 172.212893 262.546111 
L 175.492231 256.018272 
L 178.77157 249.763888 
L 182.050909 243.946661 
L 185.330248 238.739618 
L 188.609587 234.324905 
L 191.888926 230.892443 
L 195.168264 228.636695 
L 198.447603 227.750398 
L 201.726942 228.413659 
L 205.006281 230.77639 
L 208.28562 234.931813 
L 211.564959 240.879354 
L 214.844298 248.477441 
L 218.123636 257.391744 
L 221.402975 267.052921 
L 224.682314 276.648412 
L 227.961653 285.179033 
L 231.240992 291.601878 
L 234.520331 295.047669 
L 237.799669 295.047669 
L 241.079008 291.601878 
L 244.358347 285.179033 
L 247.637686 276.648412 
L 250.917025 267.052921 
L 254.196364 257.391744 
L 257.475702 248.477441 
L 260.755041 240.879354 
L 264.03438 234.931813 
L 267.313719 230.77639 
L 270.593058 228.413659 
L 273.872397 227.750398 
L 277.151736 228.636695 
L 280.431074 230.892443 
L 283.710413 234.324905 
L 286.989752 238.739618 
L 290.269091 243.946661 
L 293.54843 249.763888 
L 296.827769 256.018272 
L 300.107107 262.546111 
L 303.386446 269.192615 
L 306.665785 275.811185 
L 309.945124 282.262551 
L 313.224463 288.413916 
L 316.503802 294.138119 
L 319.78314 291.654446 
L 323.062479 287.04577 
L 326.341818 283.003389 
L 329.621157 279.515401 
L 332.900496 276.567226 
L 336.179835 274.14198 
L 339.459174 272.220798 
L 342.738512 270.78311 
L 346.017851 269.806873 
L 349.29719 269.268771 
L 352.576529 269.144387 
L 355.855868 269.408346 
L 359.135207 270.034443 
L 362.414545 270.995747 
L 365.693884 272.264694 
L 368.973223 273.813167 
L 372.252562 275.612562 
L 375.531901 277.633846 
L 378.81124 279.847612 
L 382.090579 282.224118 
L 385.369917 284.733331 
L 388.649256 287.344953 
L 391.928595 290.028459 
L 395.207934 292.753113 
L 398.487273 295.488 
" style="fill:none;stroke:#0000ff;stroke-linecap:square;stroke-width:1.5;"/>
   </g>
   <g id="line2d_33">
    <path clip-path="url(#p53e3e2cb60)" d="M 73.832727 295.488 
L 77.112066 295.430695 
L 80.391405 295.361072 
L 83.670744 295.287496 
L 86.950083 295.218151 
L 90.229421 295.161014 
L 93.50876 295.123829 
L 96.788099 295.114081 
L 100.067438 295.13896 
L 103.346777 295.205324 
L 106.626116 295.319652 
L 109.905455 295.488 
L 113.184793 295.264938 
L 116.464132 295.006511 
L 119.743471 294.737572 
L 123.02281 294.483699 
L 126.302149 294.271302 
L 129.581488 294.127748 
L 132.860826 294.081505 
L 136.140165 294.162315 
L 139.419504 294.401391 
L 142.698843 294.831652 
L 145.978182 295.488 
L 149.257521 294.594952 
L 152.53686 293.55827 
L 155.816198 292.49449 
L 159.095537 291.51652 
L 162.374876 290.733053 
L 165.654215 290.247891 
L 168.933554 290.159196 
L 172.212893 290.558665 
L 175.492231 291.530659 
L 178.77157 293.15135 
L 182.050909 295.488 
L 185.330248 292.445399 
L 188.609587 288.987733 
L 191.888926 285.481607 
L 195.168264 282.298168 
L 198.447603 279.806835 
L 201.726942 278.3644 
L 205.006281 278.297457 
L 208.28562 279.875911 
L 211.564959 283.275871 
L 214.844298 288.53245 
L 218.123636 295.488 
L 221.402975 287.270664 
L 224.682314 278.650049 
L 227.961653 270.715817 
L 231.240992 264.601345 
L 234.520331 261.266389 
L 237.799669 261.266389 
L 241.079008 264.601345 
L 244.358347 270.715817 
L 247.637686 278.650049 
L 250.917025 287.270664 
L 254.196364 295.488 
L 257.475702 288.53245 
L 260.755041 283.275871 
L 264.03438 279.875911 
L 267.313719 278.297457 
L 270.593058 278.3644 
L 273.872397 279.806835 
L 277.151736 282.298168 
L 280.431074 285.481607 
L 283.710413 288.987733 
L 286.989752 292.445399 
L 290.269091 295.488 
L 293.54843 293.15135 
L 296.827769 291.530659 
L 300.107107 290.558665 
L 303.386446 290.159196 
L 306.665785 290.247891 
L 309.945124 290.733053 
L 313.224463 291.51652 
L 316.503802 292.49449 
L 319.78314 293.55827 
L 323.062479 294.594952 
L 326.341818 295.488 
L 329.621157 294.831652 
L 332.900496 294.401391 
L 336.179835 294.162315 
L 339.459174 294.081505 
L 342.738512 294.127748 
L 346.017851 294.271302 
L 349.29719 294.483699 
L 352.576529 294.737572 
L 355.855868 295.006511 
L 359.135207 295.264938 
L 362.414545 295.488 
L 365.693884 295.319652 
L 368.973223 295.205324 
L 372.252562 295.13896 
L 375.531901 295.114081 
L 378.81124 295.123829 
L 382.090579 295.161014 
L 385.369917 295.218151 
L 388.649256 295.287496 
L 391.928595 295.361072 
L 395.207934 295.430695 
L 398.487273 295.488 
" style="fill:none;stroke:#ff0000;stroke-linecap:square;stroke-width:1.5;"/>
   </g>
   <g id="line2d_34">
    <path clip-path="url(#p53e3e2cb60)" d="M 73.832727 295.488 
L 77.112066 295.457188 
L 80.391405 295.443019 
L 83.670744 295.44145 
L 86.950083 295.448622 
L 90.229421 295.460883 
L 93.50876 295.474811 
L 96.788099 295.487247 
L 100.067438 295.480321 
L 103.346777 295.476303 
L 106.626116 295.476189 
L 109.905455 295.479042 
L 113.184793 295.483437 
L 116.464132 295.487395 
L 119.743471 295.487696 
L 123.02281 295.483763 
L 126.302149 295.476316 
L 129.581488 295.469749 
L 132.860826 295.466751 
L 136.140165 295.468739 
L 139.419504 295.475658 
L 142.698843 295.485745 
L 145.978182 295.479938 
L 149.257521 295.468403 
L 152.53686 295.454437 
L 155.816198 295.439928 
L 159.095537 295.430394 
L 162.374876 295.435569 
L 165.654215 295.470073 
L 168.933554 295.426156 
L 172.212893 295.321222 
L 175.492231 295.228018 
L 178.77157 295.175527 
L 182.050909 295.183822 
L 185.330248 295.263644 
L 188.609587 295.416621 
L 191.888926 295.342267 
L 195.168264 295.111036 
L 198.447603 294.939032 
L 201.726942 294.887464 
L 205.006281 294.987345 
L 208.28562 295.212998 
L 211.564959 295.44495 
L 214.844298 295.452927 
L 218.123636 295.321103 
L 221.402975 295.319498 
L 224.682314 295.487658 
L 227.961653 295.297499 
L 231.240992 295.274774 
L 234.520331 295.437344 
L 237.799669 295.437344 
L 241.079008 295.274774 
L 244.358347 295.297499 
L 247.637686 295.487658 
L 250.917025 295.319498 
L 254.196364 295.321103 
L 257.475702 295.452927 
L 260.755041 295.44495 
L 264.03438 295.212998 
L 267.313719 294.987345 
L 270.593058 294.887464 
L 273.872397 294.939032 
L 277.151736 295.111036 
L 280.431074 295.342267 
L 283.710413 295.416621 
L 286.989752 295.263644 
L 290.269091 295.183822 
L 293.54843 295.175527 
L 296.827769 295.228018 
L 300.107107 295.321222 
L 303.386446 295.426156 
L 306.665785 295.470073 
L 309.945124 295.435569 
L 313.224463 295.430394 
L 316.503802 295.439928 
L 319.78314 295.454437 
L 323.062479 295.468403 
L 326.341818 295.479938 
L 329.621157 295.485745 
L 332.900496 295.475658 
L 336.179835 295.468739 
L 339.459174 295.466751 
L 342.738512 295.469749 
L 346.017851 295.476316 
L 349.29719 295.483763 
L 352.576529 295.487696 
L 355.855868 295.487395 
L 359.135207 295.483437 
L 362.414545 295.479042 
L 365.693884 295.476189 
L 368.973223 295.476303 
L 372.252562 295.480321 
L 375.531901 295.487247 
L 378.81124 295.474811 
L 382.090579 295.460883 
L 385.369917 295.448622 
L 388.649256 295.44145 
L 391.928595 295.443019 
L 395.207934 295.457188 
L 398.487273 295.488 
" style="fill:none;stroke:#bf00bf;stroke-linecap:square;stroke-width:1.5;"/>
   </g>
   <g id="patch_3">
    <path d="M 57.6 307.584 
L 57.6 41.472 
" style="fill:none;stroke:#000000;stroke-linecap:square;stroke-linejoin:miter;stroke-width:0.8;"/>
   </g>
   <g id="patch_4">
    <path d="M 414.72 307.584 
L 414.72 41.472 
" style="fill:none;stroke:#000000;stroke-linecap:square;stroke-linejoin:miter;stroke-width:0.8;"/>
   </g>
   <g id="patch_5">
    <path d="M 57.6 307.584 
L 414.72 307.584 
" style="fill:none;stroke:#000000;stroke-linecap:square;stroke-linejoin:miter;stroke-width:0.8;"/>
   </g>
   <g id="patch_6">
    <path d="M 57.6 41.472 
L 414.72 41.472 
" style="fill:none;stroke:#000000;stroke-linecap:square;stroke-linejoin:miter;stroke-width:0.8;"/>
   </g>
   <g id="text_18">
    <!-- Difference Spline Interpolation -->
    <g transform="translate(144.48 35.472)scale(0.12 -0.12)">
     <defs>
      <path d="M 1259 4147 
L 1259 519 
L 2022 519 
Q 2988 519 3436 956 
Q 3884 1394 3884 2338 
Q 3884 3275 3436 3711 
Q 2988 4147 2022 4147 
L 1259 4147 
z
M 628 4666 
L 1925 4666 
Q 3281 4666 3915 4102 
Q 4550 3538 4550 2338 
Q 4550 1131 3912 565 
Q 3275 0 1925 0 
L 628 0 
L 628 4666 
z
" id="DejaVuSans-44" transform="scale(0.015625)"/>
      <path d="M 603 3500 
L 1178 3500 
L 1178 0 
L 603 0 
L 603 3500 
z
M 603 4863 
L 1178 4863 
L 1178 4134 
L 603 4134 
L 603 4863 
z
" id="DejaVuSans-69" transform="scale(0.015625)"/>
      <path d="M 3597 1894 
L 3597 1613 
L 953 1613 
Q 991 1019 1311 708 
Q 1631 397 2203 397 
Q 2534 397 2845 478 
Q 3156 559 3463 722 
L 3463 178 
Q 3153 47 2828 -22 
Q 2503 -91 2169 -91 
Q 1331 -91 842 396 
Q 353 884 353 1716 
Q 353 2575 817 3079 
Q 1281 3584 2069 3584 
Q 2775 3584 3186 3129 
Q 3597 2675 3597 1894 
z
M 3022 2063 
Q 3016 2534 2758 2815 
Q 2500 3097 2075 3097 
Q 1594 3097 1305 2825 
Q 1016 2553 972 2059 
L 3022 2063 
z
" id="DejaVuSans-65" transform="scale(0.015625)"/>
      <path d="M 2631 2963 
Q 2534 3019 2420 3045 
Q 2306 3072 2169 3072 
Q 1681 3072 1420 2755 
Q 1159 2438 1159 1844 
L 1159 0 
L 581 0 
L 581 3500 
L 1159 3500 
L 1159 2956 
Q 1341 3275 1631 3429 
Q 1922 3584 2338 3584 
Q 2397 3584 2469 3576 
Q 2541 3569 2628 3553 
L 2631 2963 
z
" id="DejaVuSans-72" transform="scale(0.015625)"/>
      <path d="M 3513 2113 
L 3513 0 
L 2938 0 
L 2938 2094 
Q 2938 2591 2744 2837 
Q 2550 3084 2163 3084 
Q 1697 3084 1428 2787 
Q 1159 2491 1159 1978 
L 1159 0 
L 581 0 
L 581 3500 
L 1159 3500 
L 1159 2956 
Q 1366 3272 1645 3428 
Q 1925 3584 2291 3584 
Q 2894 3584 3203 3211 
Q 3513 2838 3513 2113 
z
" id="DejaVuSans-6e" transform="scale(0.015625)"/>
      <path d="M 3122 3366 
L 3122 2828 
Q 2878 2963 2633 3030 
Q 2388 3097 2138 3097 
Q 1578 3097 1268 2742 
Q 959 2388 959 1747 
Q 959 1106 1268 751 
Q 1578 397 2138 397 
Q 2388 397 2633 464 
Q 2878 531 3122 666 
L 3122 134 
Q 2881 22 2623 -34 
Q 2366 -91 2075 -91 
Q 1284 -91 818 406 
Q 353 903 353 1747 
Q 353 2603 823 3093 
Q 1294 3584 2113 3584 
Q 2378 3584 2631 3529 
Q 2884 3475 3122 3366 
z
" id="DejaVuSans-63" transform="scale(0.015625)"/>
      <path id="DejaVuSans-20" transform="scale(0.015625)"/>
      <path d="M 3425 4513 
L 3425 3897 
Q 3066 4069 2747 4153 
Q 2428 4238 2131 4238 
Q 1616 4238 1336 4038 
Q 1056 3838 1056 3469 
Q 1056 3159 1242 3001 
Q 1428 2844 1947 2747 
L 2328 2669 
Q 3034 2534 3370 2195 
Q 3706 1856 3706 1288 
Q 3706 609 3251 259 
Q 2797 -91 1919 -91 
Q 1588 -91 1214 -16 
Q 841 59 441 206 
L 441 856 
Q 825 641 1194 531 
Q 1563 422 1919 422 
Q 2459 422 2753 634 
Q 3047 847 3047 1241 
Q 3047 1584 2836 1778 
Q 2625 1972 2144 2069 
L 1759 2144 
Q 1053 2284 737 2584 
Q 422 2884 422 3419 
Q 422 4038 858 4394 
Q 1294 4750 2059 4750 
Q 2388 4750 2728 4690 
Q 3069 4631 3425 4513 
z
" id="DejaVuSans-53" transform="scale(0.015625)"/>
      <path d="M 1159 525 
L 1159 -1331 
L 581 -1331 
L 581 3500 
L 1159 3500 
L 1159 2969 
Q 1341 3281 1617 3432 
Q 1894 3584 2278 3584 
Q 2916 3584 3314 3078 
Q 3713 2572 3713 1747 
Q 3713 922 3314 415 
Q 2916 -91 2278 -91 
Q 1894 -91 1617 61 
Q 1341 213 1159 525 
z
M 3116 1747 
Q 3116 2381 2855 2742 
Q 2594 3103 2138 3103 
Q 1681 3103 1420 2742 
Q 1159 2381 1159 1747 
Q 1159 1113 1420 752 
Q 1681 391 2138 391 
Q 2594 391 2855 752 
Q 3116 1113 3116 1747 
z
" id="DejaVuSans-70" transform="scale(0.015625)"/>
      <path d="M 603 4863 
L 1178 4863 
L 1178 0 
L 603 0 
L 603 4863 
z
" id="DejaVuSans-6c" transform="scale(0.015625)"/>
      <path d="M 628 4666 
L 1259 4666 
L 1259 0 
L 628 0 
L 628 4666 
z
" id="DejaVuSans-49" transform="scale(0.015625)"/>
      <path d="M 1172 4494 
L 1172 3500 
L 2356 3500 
L 2356 3053 
L 1172 3053 
L 1172 1153 
Q 1172 725 1289 603 
Q 1406 481 1766 481 
L 2356 481 
L 2356 0 
L 1766 0 
Q 1100 0 847 248 
Q 594 497 594 1153 
L 594 3053 
L 172 3053 
L 172 3500 
L 594 3500 
L 594 4494 
L 1172 4494 
z
" id="DejaVuSans-74" transform="scale(0.015625)"/>
      <path d="M 1959 3097 
Q 1497 3097 1228 2736 
Q 959 2375 959 1747 
Q 959 1119 1226 758 
Q 1494 397 1959 397 
Q 2419 397 2687 759 
Q 2956 1122 2956 1747 
Q 2956 2369 2687 2733 
Q 2419 3097 1959 3097 
z
M 1959 3584 
Q 2709 3584 3137 3096 
Q 3566 2609 3566 1747 
Q 3566 888 3137 398 
Q 2709 -91 1959 -91 
Q 1206 -91 779 398 
Q 353 888 353 1747 
Q 353 2609 779 3096 
Q 1206 3584 1959 3584 
z
" id="DejaVuSans-6f" transform="scale(0.015625)"/>
      <path d="M 2194 1759 
Q 1497 1759 1228 1600 
Q 959 1441 959 1056 
Q 959 750 1161 570 
Q 1363 391 1709 391 
Q 2188 391 2477 730 
Q 2766 1069 2766 1631 
L 2766 1759 
L 2194 1759 
z
M 3341 1997 
L 3341 0 
L 2766 0 
L 2766 531 
Q 2569 213 2275 61 
Q 1981 -91 1556 -91 
Q 1019 -91 701 211 
Q 384 513 384 1019 
Q 384 1609 779 1909 
Q 1175 2209 1959 2209 
L 2766 2209 
L 2766 2266 
Q 2766 2663 2505 2880 
Q 2244 3097 1772 3097 
Q 1472 3097 1187 3025 
Q 903 2953 641 2809 
L 641 3341 
Q 956 3463 1253 3523 
Q 1550 3584 1831 3584 
Q 2591 3584 2966 3190 
Q 3341 2797 3341 1997 
z
" id="DejaVuSans-61" transform="scale(0.015625)"/>
     </defs>
     <use xlink:href="#DejaVuSans-44"/>
     <use x="77.001953" xlink:href="#DejaVuSans-69"/>
     <use x="104.785156" xlink:href="#DejaVuSans-66"/>
     <use x="139.990234" xlink:href="#DejaVuSans-66"/>
     <use x="175.195312" xlink:href="#DejaVuSans-65"/>
     <use x="236.71875" xlink:href="#DejaVuSans-72"/>
     <use x="275.582031" xlink:href="#DejaVuSans-65"/>
     <use x="337.105469" xlink:href="#DejaVuSans-6e"/>
     <use x="400.484375" xlink:href="#DejaVuSans-63"/>
     <use x="455.464844" xlink:href="#DejaVuSans-65"/>
     <use x="516.988281" xlink:href="#DejaVuSans-20"/>
     <use x="548.775391" xlink:href="#DejaVuSans-53"/>
     <use x="612.251953" xlink:href="#DejaVuSans-70"/>
     <use x="675.728516" xlink:href="#DejaVuSans-6c"/>
     <use x="703.511719" xlink:href="#DejaVuSans-69"/>
     <use x="731.294922" xlink:href="#DejaVuSans-6e"/>
     <use x="794.673828" xlink:href="#DejaVuSans-65"/>
     <use x="856.197266" xlink:href="#DejaVuSans-20"/>
     <use x="887.984375" xlink:href="#DejaVuSans-49"/>
     <use x="917.476562" xlink:href="#DejaVuSans-6e"/>
     <use x="980.855469" xlink:href="#DejaVuSans-74"/>
     <use x="1020.064453" xlink:href="#DejaVuSans-65"/>
     <use x="1081.587891" xlink:href="#DejaVuSans-72"/>
     <use x="1122.701172" xlink:href="#DejaVuSans-70"/>
     <use x="1186.177734" xlink:href="#DejaVuSans-6f"/>
     <use x="1247.359375" xlink:href="#DejaVuSans-6c"/>
     <use x="1275.142578" xlink:href="#DejaVuSans-61"/>
     <use x="1336.421875" xlink:href="#DejaVuSans-74"/>
     <use x="1375.630859" xlink:href="#DejaVuSans-69"/>
     <use x="1403.414062" xlink:href="#DejaVuSans-6f"/>
     <use x="1464.595703" xlink:href="#DejaVuSans-6e"/>
    </g>
   </g>
   <g id="legend_1">
    <g id="patch_7">
     <path d="M 279.665313 108.1845 
L 407.72 108.1845 
Q 409.72 108.1845 409.72 106.1845 
L 409.72 48.472 
Q 409.72 46.472 407.72 46.472 
L 279.665313 46.472 
Q 277.665313 46.472 277.665313 48.472 
L 277.665313 106.1845 
Q 277.665313 108.1845 279.665313 108.1845 
z
" style="fill:#ffffff;opacity:0.8;stroke:#cccccc;stroke-linejoin:miter;"/>
    </g>
    <g id="line2d_35">
     <path d="M 281.665313 54.570438 
L 301.665313 54.570438 
" style="fill:none;stroke:#008000;stroke-linecap:square;stroke-width:1.5;"/>
    </g>
    <g id="line2d_36"/>
    <g id="text_19">
     <!-- funkcja -->
     <g transform="translate(309.665313 58.070438)scale(0.1 -0.1)">
      <defs>
       <path d="M 544 1381 
L 544 3500 
L 1119 3500 
L 1119 1403 
Q 1119 906 1312 657 
Q 1506 409 1894 409 
Q 2359 409 2629 706 
Q 2900 1003 2900 1516 
L 2900 3500 
L 3475 3500 
L 3475 0 
L 2900 0 
L 2900 538 
Q 2691 219 2414 64 
Q 2138 -91 1772 -91 
Q 1169 -91 856 284 
Q 544 659 544 1381 
z
M 1991 3584 
L 1991 3584 
z
" id="DejaVuSans-75" transform="scale(0.015625)"/>
       <path d="M 581 4863 
L 1159 4863 
L 1159 1991 
L 2875 3500 
L 3609 3500 
L 1753 1863 
L 3688 0 
L 2938 0 
L 1159 1709 
L 1159 0 
L 581 0 
L 581 4863 
z
" id="DejaVuSans-6b" transform="scale(0.015625)"/>
       <path d="M 603 3500 
L 1178 3500 
L 1178 -63 
Q 1178 -731 923 -1031 
Q 669 -1331 103 -1331 
L -116 -1331 
L -116 -844 
L 38 -844 
Q 366 -844 484 -692 
Q 603 -541 603 -63 
L 603 3500 
z
M 603 4863 
L 1178 4863 
L 1178 4134 
L 603 4134 
L 603 4863 
z
" id="DejaVuSans-6a" transform="scale(0.015625)"/>
      </defs>
      <use xlink:href="#DejaVuSans-66"/>
      <use x="35.205078" xlink:href="#DejaVuSans-75"/>
      <use x="98.583984" xlink:href="#DejaVuSans-6e"/>
      <use x="161.962891" xlink:href="#DejaVuSans-6b"/>
      <use x="219.873047" xlink:href="#DejaVuSans-63"/>
      <use x="274.853516" xlink:href="#DejaVuSans-6a"/>
      <use x="302.636719" xlink:href="#DejaVuSans-61"/>
     </g>
    </g>
    <g id="line2d_37">
     <path d="M 281.665313 69.248563 
L 301.665313 69.248563 
" style="fill:none;stroke:#0000ff;stroke-linecap:square;stroke-width:1.5;"/>
    </g>
    <g id="line2d_38"/>
    <g id="text_20">
     <!-- interpolacja n = 5 -->
     <g transform="translate(309.665313 72.748563)scale(0.1 -0.1)">
      <defs>
       <path d="M 678 2906 
L 4684 2906 
L 4684 2381 
L 678 2381 
L 678 2906 
z
M 678 1631 
L 4684 1631 
L 4684 1100 
L 678 1100 
L 678 1631 
z
" id="DejaVuSans-3d" transform="scale(0.015625)"/>
      </defs>
      <use xlink:href="#DejaVuSans-69"/>
      <use x="27.783203" xlink:href="#DejaVuSans-6e"/>
      <use x="91.162109" xlink:href="#DejaVuSans-74"/>
      <use x="130.371094" xlink:href="#DejaVuSans-65"/>
      <use x="191.894531" xlink:href="#DejaVuSans-72"/>
      <use x="233.007812" xlink:href="#DejaVuSans-70"/>
      <use x="296.484375" xlink:href="#DejaVuSans-6f"/>
      <use x="357.666016" xlink:href="#DejaVuSans-6c"/>
      <use x="385.449219" xlink:href="#DejaVuSans-61"/>
      <use x="446.728516" xlink:href="#DejaVuSans-63"/>
      <use x="501.708984" xlink:href="#DejaVuSans-6a"/>
      <use x="529.492188" xlink:href="#DejaVuSans-61"/>
      <use x="590.771484" xlink:href="#DejaVuSans-20"/>
      <use x="622.558594" xlink:href="#DejaVuSans-6e"/>
      <use x="685.9375" xlink:href="#DejaVuSans-20"/>
      <use x="717.724609" xlink:href="#DejaVuSans-3d"/>
      <use x="801.513672" xlink:href="#DejaVuSans-20"/>
      <use x="833.300781" xlink:href="#DejaVuSans-35"/>
     </g>
    </g>
    <g id="line2d_39">
     <path d="M 281.665313 83.926688 
L 301.665313 83.926688 
" style="fill:none;stroke:#ff0000;stroke-linecap:square;stroke-width:1.5;"/>
    </g>
    <g id="line2d_40"/>
    <g id="text_21">
     <!-- interpolacja n = 10 -->
     <g transform="translate(309.665313 87.426688)scale(0.1 -0.1)">
      <use xlink:href="#DejaVuSans-69"/>
      <use x="27.783203" xlink:href="#DejaVuSans-6e"/>
      <use x="91.162109" xlink:href="#DejaVuSans-74"/>
      <use x="130.371094" xlink:href="#DejaVuSans-65"/>
      <use x="191.894531" xlink:href="#DejaVuSans-72"/>
      <use x="233.007812" xlink:href="#DejaVuSans-70"/>
      <use x="296.484375" xlink:href="#DejaVuSans-6f"/>
      <use x="357.666016" xlink:href="#DejaVuSans-6c"/>
      <use x="385.449219" xlink:href="#DejaVuSans-61"/>
      <use x="446.728516" xlink:href="#DejaVuSans-63"/>
      <use x="501.708984" xlink:href="#DejaVuSans-6a"/>
      <use x="529.492188" xlink:href="#DejaVuSans-61"/>
      <use x="590.771484" xlink:href="#DejaVuSans-20"/>
      <use x="622.558594" xlink:href="#DejaVuSans-6e"/>
      <use x="685.9375" xlink:href="#DejaVuSans-20"/>
      <use x="717.724609" xlink:href="#DejaVuSans-3d"/>
      <use x="801.513672" xlink:href="#DejaVuSans-20"/>
      <use x="833.300781" xlink:href="#DejaVuSans-31"/>
      <use x="896.923828" xlink:href="#DejaVuSans-30"/>
     </g>
    </g>
    <g id="line2d_41">
     <path d="M 281.665313 98.604813 
L 301.665313 98.604813 
" style="fill:none;stroke:#bf00bf;stroke-linecap:square;stroke-width:1.5;"/>
    </g>
    <g id="line2d_42"/>
    <g id="text_22">
     <!-- interpolacja n = 15 -->
     <g transform="translate(309.665313 102.104813)scale(0.1 -0.1)">
      <use xlink:href="#DejaVuSans-69"/>
      <use x="27.783203" xlink:href="#DejaVuSans-6e"/>
      <use x="91.162109" xlink:href="#DejaVuSans-74"/>
      <use x="130.371094" xlink:href="#DejaVuSans-65"/>
      <use x="191.894531" xlink:href="#DejaVuSans-72"/>
      <use x="233.007812" xlink:href="#DejaVuSans-70"/>
      <use x="296.484375" xlink:href="#DejaVuSans-6f"/>
      <use x="357.666016" xlink:href="#DejaVuSans-6c"/>
      <use x="385.449219" xlink:href="#DejaVuSans-61"/>
      <use x="446.728516" xlink:href="#DejaVuSans-63"/>
      <use x="501.708984" xlink:href="#DejaVuSans-6a"/>
      <use x="529.492188" xlink:href="#DejaVuSans-61"/>
      <use x="590.771484" xlink:href="#DejaVuSans-20"/>
      <use x="622.558594" xlink:href="#DejaVuSans-6e"/>
      <use x="685.9375" xlink:href="#DejaVuSans-20"/>
      <use x="717.724609" xlink:href="#DejaVuSans-3d"/>
      <use x="801.513672" xlink:href="#DejaVuSans-20"/>
      <use x="833.300781" xlink:href="#DejaVuSans-31"/>
      <use x="896.923828" xlink:href="#DejaVuSans-35"/>
     </g>
    </g>
   </g>
  </g>
 </g>
 <defs>
  <clipPath id="p53e3e2cb60">
   <rect height="266.112" width="357.12" x="57.6" y="41.472"/>
  </clipPath>
 </defs>
</svg>
