<?xml version="1.0" encoding="utf-8" standalone="no"?>
<!DOCTYPE svg PUBLIC "-//W3C//DTD SVG 1.1//EN"
  "http://www.w3.org/Graphics/SVG/1.1/DTD/svg11.dtd">
<svg height="345.6pt" version="1.1" viewBox="0 0 460.8 345.6" width="460.8pt" xmlns="http://www.w3.org/2000/svg" xmlns:xlink="http://www.w3.org/1999/xlink">
 <metadata>
  <rdf:RDF xmlns:cc="http://creativecommons.org/ns#" xmlns:dc="http://purl.org/dc/elements/1.1/" xmlns:rdf="http://www.w3.org/1999/02/22-rdf-syntax-ns#">
   <cc:Work>
    <dc:type rdf:resource="http://purl.org/dc/dcmitype/StillImage"/>
    <dc:date>2022-01-06T11:25:23.508680</dc:date>
    <dc:format>image/svg+xml</dc:format>
    <dc:creator>
     <cc:Agent>
      <dc:title>Matplotlib v3.4.3, https://matplotlib.org/</dc:title>
     </cc:Agent>
    </dc:creator>
   </cc:Work>
  </rdf:RDF>
 </metadata>
 <defs>
  <style type="text/css">*{stroke-linecap:butt;stroke-linejoin:round;}</style>
 </defs>
 <g id="figure_1">
  <g id="patch_1">
   <path d="M 0 345.6 
L 460.8 345.6 
L 460.8 0 
L 0 0 
z
" style="fill:#ffffff;"/>
  </g>
  <g id="axes_1">
   <g id="patch_2">
    <path d="M 57.6 307.584 
L 414.72 307.584 
L 414.72 41.472 
L 57.6 41.472 
z
" style="fill:#ffffff;"/>
   </g>
   <g id="matplotlib.axis_1">
    <g id="xtick_1">
     <g id="line2d_1">
      <defs>
       <path d="M 0 0 
L 0 3.5 
" id="m4450451878" style="stroke:#000000;stroke-width:0.8;"/>
      </defs>
      <g>
       <use style="stroke:#000000;stroke-width:0.8;" x="73.832727" xlink:href="#m4450451878" y="307.584"/>
      </g>
     </g>
     <g id="text_1">
      <!-- −1.00 -->
      <g transform="translate(58.510071 322.182437)scale(0.1 -0.1)">
       <defs>
        <path d="M 678 2272 
L 4684 2272 
L 4684 1741 
L 678 1741 
L 678 2272 
z
" id="DejaVuSans-2212" transform="scale(0.015625)"/>
        <path d="M 794 531 
L 1825 531 
L 1825 4091 
L 703 3866 
L 703 4441 
L 1819 4666 
L 2450 4666 
L 2450 531 
L 3481 531 
L 3481 0 
L 794 0 
L 794 531 
z
" id="DejaVuSans-31" transform="scale(0.015625)"/>
        <path d="M 684 794 
L 1344 794 
L 1344 0 
L 684 0 
L 684 794 
z
" id="DejaVuSans-2e" transform="scale(0.015625)"/>
        <path d="M 2034 4250 
Q 1547 4250 1301 3770 
Q 1056 3291 1056 2328 
Q 1056 1369 1301 889 
Q 1547 409 2034 409 
Q 2525 409 2770 889 
Q 3016 1369 3016 2328 
Q 3016 3291 2770 3770 
Q 2525 4250 2034 4250 
z
M 2034 4750 
Q 2819 4750 3233 4129 
Q 3647 3509 3647 2328 
Q 3647 1150 3233 529 
Q 2819 -91 2034 -91 
Q 1250 -91 836 529 
Q 422 1150 422 2328 
Q 422 3509 836 4129 
Q 1250 4750 2034 4750 
z
" id="DejaVuSans-30" transform="scale(0.015625)"/>
       </defs>
       <use xlink:href="#DejaVuSans-2212"/>
       <use x="83.789062" xlink:href="#DejaVuSans-31"/>
       <use x="147.412109" xlink:href="#DejaVuSans-2e"/>
       <use x="179.199219" xlink:href="#DejaVuSans-30"/>
       <use x="242.822266" xlink:href="#DejaVuSans-30"/>
      </g>
     </g>
    </g>
    <g id="xtick_2">
     <g id="line2d_2">
      <g>
       <use style="stroke:#000000;stroke-width:0.8;" x="114.414545" xlink:href="#m4450451878" y="307.584"/>
      </g>
     </g>
     <g id="text_2">
      <!-- −0.75 -->
      <g transform="translate(99.091889 322.182437)scale(0.1 -0.1)">
       <defs>
        <path d="M 525 4666 
L 3525 4666 
L 3525 4397 
L 1831 0 
L 1172 0 
L 2766 4134 
L 525 4134 
L 525 4666 
z
" id="DejaVuSans-37" transform="scale(0.015625)"/>
        <path d="M 691 4666 
L 3169 4666 
L 3169 4134 
L 1269 4134 
L 1269 2991 
Q 1406 3038 1543 3061 
Q 1681 3084 1819 3084 
Q 2600 3084 3056 2656 
Q 3513 2228 3513 1497 
Q 3513 744 3044 326 
Q 2575 -91 1722 -91 
Q 1428 -91 1123 -41 
Q 819 9 494 109 
L 494 744 
Q 775 591 1075 516 
Q 1375 441 1709 441 
Q 2250 441 2565 725 
Q 2881 1009 2881 1497 
Q 2881 1984 2565 2268 
Q 2250 2553 1709 2553 
Q 1456 2553 1204 2497 
Q 953 2441 691 2322 
L 691 4666 
z
" id="DejaVuSans-35" transform="scale(0.015625)"/>
       </defs>
       <use xlink:href="#DejaVuSans-2212"/>
       <use x="83.789062" xlink:href="#DejaVuSans-30"/>
       <use x="147.412109" xlink:href="#DejaVuSans-2e"/>
       <use x="179.199219" xlink:href="#DejaVuSans-37"/>
       <use x="242.822266" xlink:href="#DejaVuSans-35"/>
      </g>
     </g>
    </g>
    <g id="xtick_3">
     <g id="line2d_3">
      <g>
       <use style="stroke:#000000;stroke-width:0.8;" x="154.996364" xlink:href="#m4450451878" y="307.584"/>
      </g>
     </g>
     <g id="text_3">
      <!-- −0.50 -->
      <g transform="translate(139.673707 322.182437)scale(0.1 -0.1)">
       <use xlink:href="#DejaVuSans-2212"/>
       <use x="83.789062" xlink:href="#DejaVuSans-30"/>
       <use x="147.412109" xlink:href="#DejaVuSans-2e"/>
       <use x="179.199219" xlink:href="#DejaVuSans-35"/>
       <use x="242.822266" xlink:href="#DejaVuSans-30"/>
      </g>
     </g>
    </g>
    <g id="xtick_4">
     <g id="line2d_4">
      <g>
       <use style="stroke:#000000;stroke-width:0.8;" x="195.578182" xlink:href="#m4450451878" y="307.584"/>
      </g>
     </g>
     <g id="text_4">
      <!-- −0.25 -->
      <g transform="translate(180.255526 322.182437)scale(0.1 -0.1)">
       <defs>
        <path d="M 1228 531 
L 3431 531 
L 3431 0 
L 469 0 
L 469 531 
Q 828 903 1448 1529 
Q 2069 2156 2228 2338 
Q 2531 2678 2651 2914 
Q 2772 3150 2772 3378 
Q 2772 3750 2511 3984 
Q 2250 4219 1831 4219 
Q 1534 4219 1204 4116 
Q 875 4013 500 3803 
L 500 4441 
Q 881 4594 1212 4672 
Q 1544 4750 1819 4750 
Q 2544 4750 2975 4387 
Q 3406 4025 3406 3419 
Q 3406 3131 3298 2873 
Q 3191 2616 2906 2266 
Q 2828 2175 2409 1742 
Q 1991 1309 1228 531 
z
" id="DejaVuSans-32" transform="scale(0.015625)"/>
       </defs>
       <use xlink:href="#DejaVuSans-2212"/>
       <use x="83.789062" xlink:href="#DejaVuSans-30"/>
       <use x="147.412109" xlink:href="#DejaVuSans-2e"/>
       <use x="179.199219" xlink:href="#DejaVuSans-32"/>
       <use x="242.822266" xlink:href="#DejaVuSans-35"/>
      </g>
     </g>
    </g>
    <g id="xtick_5">
     <g id="line2d_5">
      <g>
       <use style="stroke:#000000;stroke-width:0.8;" x="236.16" xlink:href="#m4450451878" y="307.584"/>
      </g>
     </g>
     <g id="text_5">
      <!-- 0.00 -->
      <g transform="translate(225.027187 322.182437)scale(0.1 -0.1)">
       <use xlink:href="#DejaVuSans-30"/>
       <use x="63.623047" xlink:href="#DejaVuSans-2e"/>
       <use x="95.410156" xlink:href="#DejaVuSans-30"/>
       <use x="159.033203" xlink:href="#DejaVuSans-30"/>
      </g>
     </g>
    </g>
    <g id="xtick_6">
     <g id="line2d_6">
      <g>
       <use style="stroke:#000000;stroke-width:0.8;" x="276.741818" xlink:href="#m4450451878" y="307.584"/>
      </g>
     </g>
     <g id="text_6">
      <!-- 0.25 -->
      <g transform="translate(265.609006 322.182437)scale(0.1 -0.1)">
       <use xlink:href="#DejaVuSans-30"/>
       <use x="63.623047" xlink:href="#DejaVuSans-2e"/>
       <use x="95.410156" xlink:href="#DejaVuSans-32"/>
       <use x="159.033203" xlink:href="#DejaVuSans-35"/>
      </g>
     </g>
    </g>
    <g id="xtick_7">
     <g id="line2d_7">
      <g>
       <use style="stroke:#000000;stroke-width:0.8;" x="317.323636" xlink:href="#m4450451878" y="307.584"/>
      </g>
     </g>
     <g id="text_7">
      <!-- 0.50 -->
      <g transform="translate(306.190824 322.182437)scale(0.1 -0.1)">
       <use xlink:href="#DejaVuSans-30"/>
       <use x="63.623047" xlink:href="#DejaVuSans-2e"/>
       <use x="95.410156" xlink:href="#DejaVuSans-35"/>
       <use x="159.033203" xlink:href="#DejaVuSans-30"/>
      </g>
     </g>
    </g>
    <g id="xtick_8">
     <g id="line2d_8">
      <g>
       <use style="stroke:#000000;stroke-width:0.8;" x="357.905455" xlink:href="#m4450451878" y="307.584"/>
      </g>
     </g>
     <g id="text_8">
      <!-- 0.75 -->
      <g transform="translate(346.772642 322.182437)scale(0.1 -0.1)">
       <use xlink:href="#DejaVuSans-30"/>
       <use x="63.623047" xlink:href="#DejaVuSans-2e"/>
       <use x="95.410156" xlink:href="#DejaVuSans-37"/>
       <use x="159.033203" xlink:href="#DejaVuSans-35"/>
      </g>
     </g>
    </g>
    <g id="xtick_9">
     <g id="line2d_9">
      <g>
       <use style="stroke:#000000;stroke-width:0.8;" x="398.487273" xlink:href="#m4450451878" y="307.584"/>
      </g>
     </g>
     <g id="text_9">
      <!-- 1.00 -->
      <g transform="translate(387.35446 322.182437)scale(0.1 -0.1)">
       <use xlink:href="#DejaVuSans-31"/>
       <use x="63.623047" xlink:href="#DejaVuSans-2e"/>
       <use x="95.410156" xlink:href="#DejaVuSans-30"/>
       <use x="159.033203" xlink:href="#DejaVuSans-30"/>
      </g>
     </g>
    </g>
   </g>
   <g id="matplotlib.axis_2">
    <g id="ytick_1">
     <g id="line2d_10">
      <defs>
       <path d="M 0 0 
L -3.5 0 
" id="mf3e145da39" style="stroke:#000000;stroke-width:0.8;"/>
      </defs>
      <g>
       <use style="stroke:#000000;stroke-width:0.8;" x="57.6" xlink:href="#mf3e145da39" y="286.223398"/>
      </g>
     </g>
     <g id="text_10">
      <!-- 0.0 -->
      <g transform="translate(34.696875 290.022617)scale(0.1 -0.1)">
       <use xlink:href="#DejaVuSans-30"/>
       <use x="63.623047" xlink:href="#DejaVuSans-2e"/>
       <use x="95.410156" xlink:href="#DejaVuSans-30"/>
      </g>
     </g>
    </g>
    <g id="ytick_2">
     <g id="line2d_11">
      <g>
       <use style="stroke:#000000;stroke-width:0.8;" x="57.6" xlink:href="#mf3e145da39" y="239.658384"/>
      </g>
     </g>
     <g id="text_11">
      <!-- 0.2 -->
      <g transform="translate(34.696875 243.457603)scale(0.1 -0.1)">
       <use xlink:href="#DejaVuSans-30"/>
       <use x="63.623047" xlink:href="#DejaVuSans-2e"/>
       <use x="95.410156" xlink:href="#DejaVuSans-32"/>
      </g>
     </g>
    </g>
    <g id="ytick_3">
     <g id="line2d_12">
      <g>
       <use style="stroke:#000000;stroke-width:0.8;" x="57.6" xlink:href="#mf3e145da39" y="193.09337"/>
      </g>
     </g>
     <g id="text_12">
      <!-- 0.4 -->
      <g transform="translate(34.696875 196.892589)scale(0.1 -0.1)">
       <defs>
        <path d="M 2419 4116 
L 825 1625 
L 2419 1625 
L 2419 4116 
z
M 2253 4666 
L 3047 4666 
L 3047 1625 
L 3713 1625 
L 3713 1100 
L 3047 1100 
L 3047 0 
L 2419 0 
L 2419 1100 
L 313 1100 
L 313 1709 
L 2253 4666 
z
" id="DejaVuSans-34" transform="scale(0.015625)"/>
       </defs>
       <use xlink:href="#DejaVuSans-30"/>
       <use x="63.623047" xlink:href="#DejaVuSans-2e"/>
       <use x="95.410156" xlink:href="#DejaVuSans-34"/>
      </g>
     </g>
    </g>
    <g id="ytick_4">
     <g id="line2d_13">
      <g>
       <use style="stroke:#000000;stroke-width:0.8;" x="57.6" xlink:href="#mf3e145da39" y="146.528356"/>
      </g>
     </g>
     <g id="text_13">
      <!-- 0.6 -->
      <g transform="translate(34.696875 150.327575)scale(0.1 -0.1)">
       <defs>
        <path d="M 2113 2584 
Q 1688 2584 1439 2293 
Q 1191 2003 1191 1497 
Q 1191 994 1439 701 
Q 1688 409 2113 409 
Q 2538 409 2786 701 
Q 3034 994 3034 1497 
Q 3034 2003 2786 2293 
Q 2538 2584 2113 2584 
z
M 3366 4563 
L 3366 3988 
Q 3128 4100 2886 4159 
Q 2644 4219 2406 4219 
Q 1781 4219 1451 3797 
Q 1122 3375 1075 2522 
Q 1259 2794 1537 2939 
Q 1816 3084 2150 3084 
Q 2853 3084 3261 2657 
Q 3669 2231 3669 1497 
Q 3669 778 3244 343 
Q 2819 -91 2113 -91 
Q 1303 -91 875 529 
Q 447 1150 447 2328 
Q 447 3434 972 4092 
Q 1497 4750 2381 4750 
Q 2619 4750 2861 4703 
Q 3103 4656 3366 4563 
z
" id="DejaVuSans-36" transform="scale(0.015625)"/>
       </defs>
       <use xlink:href="#DejaVuSans-30"/>
       <use x="63.623047" xlink:href="#DejaVuSans-2e"/>
       <use x="95.410156" xlink:href="#DejaVuSans-36"/>
      </g>
     </g>
    </g>
    <g id="ytick_5">
     <g id="line2d_14">
      <g>
       <use style="stroke:#000000;stroke-width:0.8;" x="57.6" xlink:href="#mf3e145da39" y="99.963343"/>
      </g>
     </g>
     <g id="text_14">
      <!-- 0.8 -->
      <g transform="translate(34.696875 103.762561)scale(0.1 -0.1)">
       <defs>
        <path d="M 2034 2216 
Q 1584 2216 1326 1975 
Q 1069 1734 1069 1313 
Q 1069 891 1326 650 
Q 1584 409 2034 409 
Q 2484 409 2743 651 
Q 3003 894 3003 1313 
Q 3003 1734 2745 1975 
Q 2488 2216 2034 2216 
z
M 1403 2484 
Q 997 2584 770 2862 
Q 544 3141 544 3541 
Q 544 4100 942 4425 
Q 1341 4750 2034 4750 
Q 2731 4750 3128 4425 
Q 3525 4100 3525 3541 
Q 3525 3141 3298 2862 
Q 3072 2584 2669 2484 
Q 3125 2378 3379 2068 
Q 3634 1759 3634 1313 
Q 3634 634 3220 271 
Q 2806 -91 2034 -91 
Q 1263 -91 848 271 
Q 434 634 434 1313 
Q 434 1759 690 2068 
Q 947 2378 1403 2484 
z
M 1172 3481 
Q 1172 3119 1398 2916 
Q 1625 2713 2034 2713 
Q 2441 2713 2670 2916 
Q 2900 3119 2900 3481 
Q 2900 3844 2670 4047 
Q 2441 4250 2034 4250 
Q 1625 4250 1398 4047 
Q 1172 3844 1172 3481 
z
" id="DejaVuSans-38" transform="scale(0.015625)"/>
       </defs>
       <use xlink:href="#DejaVuSans-30"/>
       <use x="63.623047" xlink:href="#DejaVuSans-2e"/>
       <use x="95.410156" xlink:href="#DejaVuSans-38"/>
      </g>
     </g>
    </g>
    <g id="ytick_6">
     <g id="line2d_15">
      <g>
       <use style="stroke:#000000;stroke-width:0.8;" x="57.6" xlink:href="#mf3e145da39" y="53.398329"/>
      </g>
     </g>
     <g id="text_15">
      <!-- 1.0 -->
      <g transform="translate(34.696875 57.197548)scale(0.1 -0.1)">
       <use xlink:href="#DejaVuSans-31"/>
       <use x="63.623047" xlink:href="#DejaVuSans-2e"/>
       <use x="95.410156" xlink:href="#DejaVuSans-30"/>
      </g>
     </g>
    </g>
   </g>
   <g id="line2d_16">
    <path clip-path="url(#pbf4294485a)" d="M 73.832727 277.268587 
L 77.112066 276.910433 
L 80.391405 276.530677 
L 83.670744 276.127575 
L 86.950083 275.699206 
L 90.229421 275.243451 
L 93.50876 274.757969 
L 96.788099 274.240168 
L 100.067438 273.687175 
L 103.346777 273.095796 
L 106.626116 272.462477 
L 109.905455 271.783252 
L 113.184793 271.05369 
L 116.464132 270.268827 
L 119.743471 269.423091 
L 123.02281 268.510215 
L 126.302149 267.523133 
L 129.581488 266.453861 
L 132.860826 265.293358 
L 136.140165 264.03136 
L 139.419504 262.65619 
L 142.698843 261.154533 
L 145.978182 259.511173 
L 149.257521 257.708684 
L 152.53686 255.727066 
L 155.816198 253.543329 
L 159.095537 251.130996 
L 162.374876 248.459546 
L 165.654215 245.493763 
L 168.933554 242.193017 
L 172.212893 238.51047 
L 175.492231 234.392241 
L 178.77157 229.776594 
L 182.050909 224.593232 
L 185.330248 218.762909 
L 188.609587 212.197624 
L 191.888926 204.801914 
L 195.168264 196.475954 
L 198.447603 187.121578 
L 201.726942 176.652741 
L 205.006281 165.012386 
L 208.28562 152.197878 
L 211.564959 138.296618 
L 214.844298 123.531362 
L 218.123636 108.309902 
L 221.402975 93.265635 
L 224.682314 79.265435 
L 227.961653 67.355328 
L 231.240992 58.623308 
L 234.520331 53.990699 
L 237.799669 53.990699 
L 241.079008 58.623308 
L 244.358347 67.355328 
L 247.637686 79.265435 
L 250.917025 93.265635 
L 254.196364 108.309902 
L 257.475702 123.531362 
L 260.755041 138.296618 
L 264.03438 152.197878 
L 267.313719 165.012386 
L 270.593058 176.652741 
L 273.872397 187.121578 
L 277.151736 196.475954 
L 280.431074 204.801914 
L 283.710413 212.197624 
L 286.989752 218.762909 
L 290.269091 224.593232 
L 293.54843 229.776594 
L 296.827769 234.392241 
L 300.107107 238.51047 
L 303.386446 242.193017 
L 306.665785 245.493763 
L 309.945124 248.459546 
L 313.224463 251.130996 
L 316.503802 253.543329 
L 319.78314 255.727066 
L 323.062479 257.708684 
L 326.341818 259.511173 
L 329.621157 261.154533 
L 332.900496 262.65619 
L 336.179835 264.03136 
L 339.459174 265.293358 
L 342.738512 266.453861 
L 346.017851 267.523133 
L 349.29719 268.510215 
L 352.576529 269.423091 
L 355.855868 270.268827 
L 359.135207 271.05369 
L 362.414545 271.783252 
L 365.693884 272.462477 
L 368.973223 273.095796 
L 372.252562 273.687175 
L 375.531901 274.240168 
L 378.81124 274.757969 
L 382.090579 275.243451 
L 385.369917 275.699206 
L 388.649256 276.127575 
L 391.928595 276.530677 
L 395.207934 276.910433 
L 398.487273 277.268587 
" style="fill:none;stroke:#008000;stroke-linecap:square;stroke-width:1.5;"/>
   </g>
   <g id="line2d_17">
    <path clip-path="url(#pbf4294485a)" d="M 73.832727 277.268587 
L 77.112066 279.535805 
L 80.391405 281.7716 
L 83.670744 283.944546 
L 86.950083 286.023221 
L 90.229421 287.976201 
L 93.50876 289.772063 
L 96.788099 291.379381 
L 100.067438 292.766733 
L 103.346777 293.902695 
L 106.626116 294.755842 
L 109.905455 295.294752 
L 113.184793 295.488 
L 116.464132 295.304163 
L 119.743471 294.711816 
L 123.02281 293.679537 
L 126.302149 292.1759 
L 129.581488 290.169483 
L 132.860826 287.628862 
L 136.140165 284.522613 
L 139.419504 280.819312 
L 142.698843 276.487535 
L 145.978182 271.495858 
L 149.257521 265.812858 
L 152.53686 259.407111 
L 155.816198 252.247502 
L 159.095537 244.340183 
L 162.374876 235.76369 
L 165.654215 226.604875 
L 168.933554 216.950589 
L 172.212893 206.887686 
L 175.492231 196.503016 
L 178.77157 185.883431 
L 182.050909 175.115784 
L 185.330248 164.286925 
L 188.609587 153.483708 
L 191.888926 142.792984 
L 195.168264 132.301604 
L 198.447603 122.09642 
L 201.726942 112.264285 
L 205.006281 102.89205 
L 208.28562 94.066567 
L 211.564959 85.874688 
L 214.844298 78.403265 
L 218.123636 71.739149 
L 221.402975 65.969193 
L 224.682314 61.180248 
L 227.961653 57.459167 
L 231.240992 54.8928 
L 234.520331 53.568 
L 237.799669 53.568 
L 241.079008 54.8928 
L 244.358347 57.459167 
L 247.637686 61.180248 
L 250.917025 65.969193 
L 254.196364 71.739149 
L 257.475702 78.403265 
L 260.755041 85.874688 
L 264.03438 94.066567 
L 267.313719 102.89205 
L 270.593058 112.264285 
L 273.872397 122.09642 
L 277.151736 132.301604 
L 280.431074 142.792984 
L 283.710413 153.483708 
L 286.989752 164.286925 
L 290.269091 175.115784 
L 293.54843 185.883431 
L 296.827769 196.503016 
L 300.107107 206.887686 
L 303.386446 216.950589 
L 306.665785 226.604875 
L 309.945124 235.76369 
L 313.224463 244.340183 
L 316.503802 252.247502 
L 319.78314 259.407111 
L 323.062479 265.812858 
L 326.341818 271.495858 
L 329.621157 276.487535 
L 332.900496 280.819312 
L 336.179835 284.522613 
L 339.459174 287.628862 
L 342.738512 290.169483 
L 346.017851 292.1759 
L 349.29719 293.679537 
L 352.576529 294.711816 
L 355.855868 295.304163 
L 359.135207 295.488 
L 362.414545 295.294752 
L 365.693884 294.755842 
L 368.973223 293.902695 
L 372.252562 292.766733 
L 375.531901 291.379381 
L 378.81124 289.772063 
L 382.090579 287.976201 
L 385.369917 286.023221 
L 388.649256 283.944546 
L 391.928595 281.7716 
L 395.207934 279.535805 
L 398.487273 277.268587 
" style="fill:none;stroke:#ff0000;stroke-linecap:square;stroke-width:1.5;"/>
   </g>
   <g id="line2d_18">
    <path clip-path="url(#pbf4294485a)" d="M 73.832727 277.268587 
L 77.112066 276.965443 
L 80.391405 276.652523 
L 83.670744 276.32005 
L 86.950083 275.958249 
L 90.229421 275.557343 
L 93.50876 275.107557 
L 96.788099 274.599114 
L 100.067438 274.022238 
L 103.346777 273.367153 
L 106.626116 272.624083 
L 109.905455 271.783252 
L 113.184793 270.83956 
L 116.464132 269.806618 
L 119.743471 268.702712 
L 123.02281 267.546129 
L 126.302149 266.355156 
L 129.581488 265.148078 
L 132.860826 263.943184 
L 136.140165 262.75876 
L 139.419504 261.613092 
L 142.698843 260.524468 
L 145.978182 259.511173 
L 149.257521 258.565971 
L 152.53686 257.579523 
L 155.816198 256.416968 
L 159.095537 254.943444 
L 162.374876 253.024089 
L 165.654215 250.524041 
L 168.933554 247.308437 
L 172.212893 243.242417 
L 175.492231 238.191117 
L 178.77157 232.019676 
L 182.050909 224.593232 
L 185.330248 215.842144 
L 188.609587 205.95765 
L 191.888926 195.196212 
L 195.168264 183.814288 
L 198.447603 172.06834 
L 201.726942 160.214828 
L 205.006281 148.510211 
L 208.28562 137.21095 
L 211.564959 126.573505 
L 214.844298 116.854335 
L 218.123636 108.309902 
L 221.402975 101.153921 
L 224.682314 95.429136 
L 227.961653 91.135548 
L 231.240992 88.273156 
L 234.520331 86.84196 
L 237.799669 86.84196 
L 241.079008 88.273156 
L 244.358347 91.135548 
L 247.637686 95.429136 
L 250.917025 101.153921 
L 254.196364 108.309902 
L 257.475702 116.854335 
L 260.755041 126.573505 
L 264.03438 137.21095 
L 267.313719 148.510211 
L 270.593058 160.214828 
L 273.872397 172.06834 
L 277.151736 183.814288 
L 280.431074 195.196212 
L 283.710413 205.95765 
L 286.989752 215.842144 
L 290.269091 224.593232 
L 293.54843 232.019676 
L 296.827769 238.191117 
L 300.107107 243.242417 
L 303.386446 247.308437 
L 306.665785 250.524041 
L 309.945124 253.024089 
L 313.224463 254.943444 
L 316.503802 256.416968 
L 319.78314 257.579523 
L 323.062479 258.565971 
L 326.341818 259.511173 
L 329.621157 260.524468 
L 332.900496 261.613092 
L 336.179835 262.75876 
L 339.459174 263.943184 
L 342.738512 265.148078 
L 346.017851 266.355156 
L 349.29719 267.546129 
L 352.576529 268.702712 
L 355.855868 269.806618 
L 359.135207 270.83956 
L 362.414545 271.783252 
L 365.693884 272.624083 
L 368.973223 273.367153 
L 372.252562 274.022238 
L 375.531901 274.599114 
L 378.81124 275.107557 
L 382.090579 275.557343 
L 385.369917 275.958249 
L 388.649256 276.32005 
L 391.928595 276.652523 
L 395.207934 276.965443 
L 398.487273 277.268587 
" style="fill:none;stroke:#0000ff;stroke-linecap:square;stroke-width:1.5;"/>
   </g>
   <g id="line2d_19">
    <path clip-path="url(#pbf4294485a)" d="M 73.832727 277.268587 
L 77.112066 276.890003 
L 80.391405 276.504717 
L 83.670744 276.106031 
L 86.950083 275.687242 
L 90.229421 275.24165 
L 93.50876 274.762942 
L 96.788099 274.247762 
L 100.067438 273.694118 
L 103.346777 273.100028 
L 106.626116 272.463508 
L 109.905455 271.782443 
L 113.184793 271.052561 
L 116.464132 270.267839 
L 119.743471 269.422201 
L 123.02281 268.509572 
L 126.302149 267.523833 
L 129.581488 266.456847 
L 132.860826 265.297623 
L 136.140165 264.034957 
L 139.419504 262.657643 
L 142.698843 261.154469 
L 145.978182 259.511669 
L 149.257521 257.709055 
L 152.53686 255.725446 
L 155.816198 253.539664 
L 159.095537 251.130526 
L 162.374876 248.472671 
L 165.654215 245.521141 
L 168.933554 242.225245 
L 172.212893 238.53429 
L 175.492231 234.397585 
L 178.77157 229.762629 
L 182.050909 224.560473 
L 185.330248 218.713389 
L 188.609587 212.143563 
L 191.888926 204.773185 
L 195.168264 196.52332 
L 198.447603 187.292122 
L 201.726942 176.95636 
L 205.006281 165.39198 
L 208.28562 152.474931 
L 211.564959 138.087007 
L 214.844298 122.509605 
L 218.123636 106.673293 
L 221.402975 91.568116 
L 224.682314 78.184118 
L 227.961653 67.511152 
L 231.240992 60.317046 
L 234.520331 56.719993 
L 237.799669 56.719993 
L 241.079008 60.317046 
L 244.358347 67.511152 
L 247.637686 78.184118 
L 250.917025 91.568116 
L 254.196364 106.673293 
L 257.475702 122.509605 
L 260.755041 138.087007 
L 264.03438 152.474931 
L 267.313719 165.39198 
L 270.593058 176.95636 
L 273.872397 187.292122 
L 277.151736 196.52332 
L 280.431074 204.773185 
L 283.710413 212.143563 
L 286.989752 218.713389 
L 290.269091 224.560473 
L 293.54843 229.762629 
L 296.827769 234.397585 
L 300.107107 238.53429 
L 303.386446 242.225245 
L 306.665785 245.521141 
L 309.945124 248.472671 
L 313.224463 251.130526 
L 316.503802 253.539664 
L 319.78314 255.725446 
L 323.062479 257.709055 
L 326.341818 259.511669 
L 329.621157 261.154469 
L 332.900496 262.657643 
L 336.179835 264.034957 
L 339.459174 265.297623 
L 342.738512 266.456847 
L 346.017851 267.523833 
L 349.29719 268.509572 
L 352.576529 269.422201 
L 355.855868 270.267839 
L 359.135207 271.052561 
L 362.414545 271.782443 
L 365.693884 272.463508 
L 368.973223 273.100028 
L 372.252562 273.694118 
L 375.531901 274.247762 
L 378.81124 274.762942 
L 382.090579 275.24165 
L 385.369917 275.687242 
L 388.649256 276.106031 
L 391.928595 276.504717 
L 395.207934 276.890003 
L 398.487273 277.268587 
" style="fill:none;stroke:#bfbf00;stroke-linecap:square;stroke-width:1.5;"/>
   </g>
   <g id="patch_3">
    <path d="M 57.6 307.584 
L 57.6 41.472 
" style="fill:none;stroke:#000000;stroke-linecap:square;stroke-linejoin:miter;stroke-width:0.8;"/>
   </g>
   <g id="patch_4">
    <path d="M 414.72 307.584 
L 414.72 41.472 
" style="fill:none;stroke:#000000;stroke-linecap:square;stroke-linejoin:miter;stroke-width:0.8;"/>
   </g>
   <g id="patch_5">
    <path d="M 57.6 307.584 
L 414.72 307.584 
" style="fill:none;stroke:#000000;stroke-linecap:square;stroke-linejoin:miter;stroke-width:0.8;"/>
   </g>
   <g id="patch_6">
    <path d="M 57.6 41.472 
L 414.72 41.472 
" style="fill:none;stroke:#000000;stroke-linecap:square;stroke-linejoin:miter;stroke-width:0.8;"/>
   </g>
   <g id="text_16">
    <!-- Cubic Spline -->
    <g transform="translate(199.039688 35.472)scale(0.12 -0.12)">
     <defs>
      <path d="M 4122 4306 
L 4122 3641 
Q 3803 3938 3442 4084 
Q 3081 4231 2675 4231 
Q 1875 4231 1450 3742 
Q 1025 3253 1025 2328 
Q 1025 1406 1450 917 
Q 1875 428 2675 428 
Q 3081 428 3442 575 
Q 3803 722 4122 1019 
L 4122 359 
Q 3791 134 3420 21 
Q 3050 -91 2638 -91 
Q 1578 -91 968 557 
Q 359 1206 359 2328 
Q 359 3453 968 4101 
Q 1578 4750 2638 4750 
Q 3056 4750 3426 4639 
Q 3797 4528 4122 4306 
z
" id="DejaVuSans-43" transform="scale(0.015625)"/>
      <path d="M 544 1381 
L 544 3500 
L 1119 3500 
L 1119 1403 
Q 1119 906 1312 657 
Q 1506 409 1894 409 
Q 2359 409 2629 706 
Q 2900 1003 2900 1516 
L 2900 3500 
L 3475 3500 
L 3475 0 
L 2900 0 
L 2900 538 
Q 2691 219 2414 64 
Q 2138 -91 1772 -91 
Q 1169 -91 856 284 
Q 544 659 544 1381 
z
M 1991 3584 
L 1991 3584 
z
" id="DejaVuSans-75" transform="scale(0.015625)"/>
      <path d="M 3116 1747 
Q 3116 2381 2855 2742 
Q 2594 3103 2138 3103 
Q 1681 3103 1420 2742 
Q 1159 2381 1159 1747 
Q 1159 1113 1420 752 
Q 1681 391 2138 391 
Q 2594 391 2855 752 
Q 3116 1113 3116 1747 
z
M 1159 2969 
Q 1341 3281 1617 3432 
Q 1894 3584 2278 3584 
Q 2916 3584 3314 3078 
Q 3713 2572 3713 1747 
Q 3713 922 3314 415 
Q 2916 -91 2278 -91 
Q 1894 -91 1617 61 
Q 1341 213 1159 525 
L 1159 0 
L 581 0 
L 581 4863 
L 1159 4863 
L 1159 2969 
z
" id="DejaVuSans-62" transform="scale(0.015625)"/>
      <path d="M 603 3500 
L 1178 3500 
L 1178 0 
L 603 0 
L 603 3500 
z
M 603 4863 
L 1178 4863 
L 1178 4134 
L 603 4134 
L 603 4863 
z
" id="DejaVuSans-69" transform="scale(0.015625)"/>
      <path d="M 3122 3366 
L 3122 2828 
Q 2878 2963 2633 3030 
Q 2388 3097 2138 3097 
Q 1578 3097 1268 2742 
Q 959 2388 959 1747 
Q 959 1106 1268 751 
Q 1578 397 2138 397 
Q 2388 397 2633 464 
Q 2878 531 3122 666 
L 3122 134 
Q 2881 22 2623 -34 
Q 2366 -91 2075 -91 
Q 1284 -91 818 406 
Q 353 903 353 1747 
Q 353 2603 823 3093 
Q 1294 3584 2113 3584 
Q 2378 3584 2631 3529 
Q 2884 3475 3122 3366 
z
" id="DejaVuSans-63" transform="scale(0.015625)"/>
      <path id="DejaVuSans-20" transform="scale(0.015625)"/>
      <path d="M 3425 4513 
L 3425 3897 
Q 3066 4069 2747 4153 
Q 2428 4238 2131 4238 
Q 1616 4238 1336 4038 
Q 1056 3838 1056 3469 
Q 1056 3159 1242 3001 
Q 1428 2844 1947 2747 
L 2328 2669 
Q 3034 2534 3370 2195 
Q 3706 1856 3706 1288 
Q 3706 609 3251 259 
Q 2797 -91 1919 -91 
Q 1588 -91 1214 -16 
Q 841 59 441 206 
L 441 856 
Q 825 641 1194 531 
Q 1563 422 1919 422 
Q 2459 422 2753 634 
Q 3047 847 3047 1241 
Q 3047 1584 2836 1778 
Q 2625 1972 2144 2069 
L 1759 2144 
Q 1053 2284 737 2584 
Q 422 2884 422 3419 
Q 422 4038 858 4394 
Q 1294 4750 2059 4750 
Q 2388 4750 2728 4690 
Q 3069 4631 3425 4513 
z
" id="DejaVuSans-53" transform="scale(0.015625)"/>
      <path d="M 1159 525 
L 1159 -1331 
L 581 -1331 
L 581 3500 
L 1159 3500 
L 1159 2969 
Q 1341 3281 1617 3432 
Q 1894 3584 2278 3584 
Q 2916 3584 3314 3078 
Q 3713 2572 3713 1747 
Q 3713 922 3314 415 
Q 2916 -91 2278 -91 
Q 1894 -91 1617 61 
Q 1341 213 1159 525 
z
M 3116 1747 
Q 3116 2381 2855 2742 
Q 2594 3103 2138 3103 
Q 1681 3103 1420 2742 
Q 1159 2381 1159 1747 
Q 1159 1113 1420 752 
Q 1681 391 2138 391 
Q 2594 391 2855 752 
Q 3116 1113 3116 1747 
z
" id="DejaVuSans-70" transform="scale(0.015625)"/>
      <path d="M 603 4863 
L 1178 4863 
L 1178 0 
L 603 0 
L 603 4863 
z
" id="DejaVuSans-6c" transform="scale(0.015625)"/>
      <path d="M 3513 2113 
L 3513 0 
L 2938 0 
L 2938 2094 
Q 2938 2591 2744 2837 
Q 2550 3084 2163 3084 
Q 1697 3084 1428 2787 
Q 1159 2491 1159 1978 
L 1159 0 
L 581 0 
L 581 3500 
L 1159 3500 
L 1159 2956 
Q 1366 3272 1645 3428 
Q 1925 3584 2291 3584 
Q 2894 3584 3203 3211 
Q 3513 2838 3513 2113 
z
" id="DejaVuSans-6e" transform="scale(0.015625)"/>
      <path d="M 3597 1894 
L 3597 1613 
L 953 1613 
Q 991 1019 1311 708 
Q 1631 397 2203 397 
Q 2534 397 2845 478 
Q 3156 559 3463 722 
L 3463 178 
Q 3153 47 2828 -22 
Q 2503 -91 2169 -91 
Q 1331 -91 842 396 
Q 353 884 353 1716 
Q 353 2575 817 3079 
Q 1281 3584 2069 3584 
Q 2775 3584 3186 3129 
Q 3597 2675 3597 1894 
z
M 3022 2063 
Q 3016 2534 2758 2815 
Q 2500 3097 2075 3097 
Q 1594 3097 1305 2825 
Q 1016 2553 972 2059 
L 3022 2063 
z
" id="DejaVuSans-65" transform="scale(0.015625)"/>
     </defs>
     <use xlink:href="#DejaVuSans-43"/>
     <use x="69.824219" xlink:href="#DejaVuSans-75"/>
     <use x="133.203125" xlink:href="#DejaVuSans-62"/>
     <use x="196.679688" xlink:href="#DejaVuSans-69"/>
     <use x="224.462891" xlink:href="#DejaVuSans-63"/>
     <use x="279.443359" xlink:href="#DejaVuSans-20"/>
     <use x="311.230469" xlink:href="#DejaVuSans-53"/>
     <use x="374.707031" xlink:href="#DejaVuSans-70"/>
     <use x="438.183594" xlink:href="#DejaVuSans-6c"/>
     <use x="465.966797" xlink:href="#DejaVuSans-69"/>
     <use x="493.75" xlink:href="#DejaVuSans-6e"/>
     <use x="557.128906" xlink:href="#DejaVuSans-65"/>
    </g>
   </g>
   <g id="legend_1">
    <g id="patch_7">
     <path d="M 288.7575 108.1845 
L 407.72 108.1845 
Q 409.72 108.1845 409.72 106.1845 
L 409.72 48.472 
Q 409.72 46.472 407.72 46.472 
L 288.7575 46.472 
Q 286.7575 46.472 286.7575 48.472 
L 286.7575 106.1845 
Q 286.7575 108.1845 288.7575 108.1845 
z
" style="fill:#ffffff;opacity:0.8;stroke:#cccccc;stroke-linejoin:miter;"/>
    </g>
    <g id="line2d_20">
     <path d="M 290.7575 54.570438 
L 310.7575 54.570438 
" style="fill:none;stroke:#008000;stroke-linecap:square;stroke-width:1.5;"/>
    </g>
    <g id="line2d_21"/>
    <g id="text_17">
     <!-- Dokładna funkcja -->
     <g transform="translate(318.7575 58.070438)scale(0.1 -0.1)">
      <defs>
       <path d="M 1259 4147 
L 1259 519 
L 2022 519 
Q 2988 519 3436 956 
Q 3884 1394 3884 2338 
Q 3884 3275 3436 3711 
Q 2988 4147 2022 4147 
L 1259 4147 
z
M 628 4666 
L 1925 4666 
Q 3281 4666 3915 4102 
Q 4550 3538 4550 2338 
Q 4550 1131 3912 565 
Q 3275 0 1925 0 
L 628 0 
L 628 4666 
z
" id="DejaVuSans-44" transform="scale(0.015625)"/>
       <path d="M 1959 3097 
Q 1497 3097 1228 2736 
Q 959 2375 959 1747 
Q 959 1119 1226 758 
Q 1494 397 1959 397 
Q 2419 397 2687 759 
Q 2956 1122 2956 1747 
Q 2956 2369 2687 2733 
Q 2419 3097 1959 3097 
z
M 1959 3584 
Q 2709 3584 3137 3096 
Q 3566 2609 3566 1747 
Q 3566 888 3137 398 
Q 2709 -91 1959 -91 
Q 1206 -91 779 398 
Q 353 888 353 1747 
Q 353 2609 779 3096 
Q 1206 3584 1959 3584 
z
" id="DejaVuSans-6f" transform="scale(0.015625)"/>
       <path d="M 581 4863 
L 1159 4863 
L 1159 1991 
L 2875 3500 
L 3609 3500 
L 1753 1863 
L 3688 0 
L 2938 0 
L 1159 1709 
L 1159 0 
L 581 0 
L 581 4863 
z
" id="DejaVuSans-6b" transform="scale(0.015625)"/>
       <path d="M 622 4863 
L 1197 4863 
L 1197 2981 
L 1588 3263 
L 1825 2931 
L 1197 2491 
L 1197 0 
L 622 0 
L 622 2081 
L 238 1806 
L 6 2138 
L 622 2578 
L 622 4863 
z
" id="DejaVuSans-142" transform="scale(0.015625)"/>
       <path d="M 2194 1759 
Q 1497 1759 1228 1600 
Q 959 1441 959 1056 
Q 959 750 1161 570 
Q 1363 391 1709 391 
Q 2188 391 2477 730 
Q 2766 1069 2766 1631 
L 2766 1759 
L 2194 1759 
z
M 3341 1997 
L 3341 0 
L 2766 0 
L 2766 531 
Q 2569 213 2275 61 
Q 1981 -91 1556 -91 
Q 1019 -91 701 211 
Q 384 513 384 1019 
Q 384 1609 779 1909 
Q 1175 2209 1959 2209 
L 2766 2209 
L 2766 2266 
Q 2766 2663 2505 2880 
Q 2244 3097 1772 3097 
Q 1472 3097 1187 3025 
Q 903 2953 641 2809 
L 641 3341 
Q 956 3463 1253 3523 
Q 1550 3584 1831 3584 
Q 2591 3584 2966 3190 
Q 3341 2797 3341 1997 
z
" id="DejaVuSans-61" transform="scale(0.015625)"/>
       <path d="M 2906 2969 
L 2906 4863 
L 3481 4863 
L 3481 0 
L 2906 0 
L 2906 525 
Q 2725 213 2448 61 
Q 2172 -91 1784 -91 
Q 1150 -91 751 415 
Q 353 922 353 1747 
Q 353 2572 751 3078 
Q 1150 3584 1784 3584 
Q 2172 3584 2448 3432 
Q 2725 3281 2906 2969 
z
M 947 1747 
Q 947 1113 1208 752 
Q 1469 391 1925 391 
Q 2381 391 2643 752 
Q 2906 1113 2906 1747 
Q 2906 2381 2643 2742 
Q 2381 3103 1925 3103 
Q 1469 3103 1208 2742 
Q 947 2381 947 1747 
z
" id="DejaVuSans-64" transform="scale(0.015625)"/>
       <path d="M 2375 4863 
L 2375 4384 
L 1825 4384 
Q 1516 4384 1395 4259 
Q 1275 4134 1275 3809 
L 1275 3500 
L 2222 3500 
L 2222 3053 
L 1275 3053 
L 1275 0 
L 697 0 
L 697 3053 
L 147 3053 
L 147 3500 
L 697 3500 
L 697 3744 
Q 697 4328 969 4595 
Q 1241 4863 1831 4863 
L 2375 4863 
z
" id="DejaVuSans-66" transform="scale(0.015625)"/>
       <path d="M 603 3500 
L 1178 3500 
L 1178 -63 
Q 1178 -731 923 -1031 
Q 669 -1331 103 -1331 
L -116 -1331 
L -116 -844 
L 38 -844 
Q 366 -844 484 -692 
Q 603 -541 603 -63 
L 603 3500 
z
M 603 4863 
L 1178 4863 
L 1178 4134 
L 603 4134 
L 603 4863 
z
" id="DejaVuSans-6a" transform="scale(0.015625)"/>
      </defs>
      <use xlink:href="#DejaVuSans-44"/>
      <use x="77.001953" xlink:href="#DejaVuSans-6f"/>
      <use x="138.183594" xlink:href="#DejaVuSans-6b"/>
      <use x="196.09375" xlink:href="#DejaVuSans-142"/>
      <use x="224.511719" xlink:href="#DejaVuSans-61"/>
      <use x="285.791016" xlink:href="#DejaVuSans-64"/>
      <use x="349.267578" xlink:href="#DejaVuSans-6e"/>
      <use x="412.646484" xlink:href="#DejaVuSans-61"/>
      <use x="473.925781" xlink:href="#DejaVuSans-20"/>
      <use x="505.712891" xlink:href="#DejaVuSans-66"/>
      <use x="540.917969" xlink:href="#DejaVuSans-75"/>
      <use x="604.296875" xlink:href="#DejaVuSans-6e"/>
      <use x="667.675781" xlink:href="#DejaVuSans-6b"/>
      <use x="725.585938" xlink:href="#DejaVuSans-63"/>
      <use x="780.566406" xlink:href="#DejaVuSans-6a"/>
      <use x="808.349609" xlink:href="#DejaVuSans-61"/>
     </g>
    </g>
    <g id="line2d_22">
     <path d="M 290.7575 69.248563 
L 310.7575 69.248563 
" style="fill:none;stroke:#ff0000;stroke-linecap:square;stroke-width:1.5;"/>
    </g>
    <g id="line2d_23"/>
    <g id="text_18">
     <!-- Spline n = 5 -->
     <g transform="translate(318.7575 72.748563)scale(0.1 -0.1)">
      <defs>
       <path d="M 678 2906 
L 4684 2906 
L 4684 2381 
L 678 2381 
L 678 2906 
z
M 678 1631 
L 4684 1631 
L 4684 1100 
L 678 1100 
L 678 1631 
z
" id="DejaVuSans-3d" transform="scale(0.015625)"/>
      </defs>
      <use xlink:href="#DejaVuSans-53"/>
      <use x="63.476562" xlink:href="#DejaVuSans-70"/>
      <use x="126.953125" xlink:href="#DejaVuSans-6c"/>
      <use x="154.736328" xlink:href="#DejaVuSans-69"/>
      <use x="182.519531" xlink:href="#DejaVuSans-6e"/>
      <use x="245.898438" xlink:href="#DejaVuSans-65"/>
      <use x="307.421875" xlink:href="#DejaVuSans-20"/>
      <use x="339.208984" xlink:href="#DejaVuSans-6e"/>
      <use x="402.587891" xlink:href="#DejaVuSans-20"/>
      <use x="434.375" xlink:href="#DejaVuSans-3d"/>
      <use x="518.164062" xlink:href="#DejaVuSans-20"/>
      <use x="549.951172" xlink:href="#DejaVuSans-35"/>
     </g>
    </g>
    <g id="line2d_24">
     <path d="M 290.7575 83.926688 
L 310.7575 83.926688 
" style="fill:none;stroke:#0000ff;stroke-linecap:square;stroke-width:1.5;"/>
    </g>
    <g id="line2d_25"/>
    <g id="text_19">
     <!-- Spline n = 10 -->
     <g transform="translate(318.7575 87.426688)scale(0.1 -0.1)">
      <use xlink:href="#DejaVuSans-53"/>
      <use x="63.476562" xlink:href="#DejaVuSans-70"/>
      <use x="126.953125" xlink:href="#DejaVuSans-6c"/>
      <use x="154.736328" xlink:href="#DejaVuSans-69"/>
      <use x="182.519531" xlink:href="#DejaVuSans-6e"/>
      <use x="245.898438" xlink:href="#DejaVuSans-65"/>
      <use x="307.421875" xlink:href="#DejaVuSans-20"/>
      <use x="339.208984" xlink:href="#DejaVuSans-6e"/>
      <use x="402.587891" xlink:href="#DejaVuSans-20"/>
      <use x="434.375" xlink:href="#DejaVuSans-3d"/>
      <use x="518.164062" xlink:href="#DejaVuSans-20"/>
      <use x="549.951172" xlink:href="#DejaVuSans-31"/>
      <use x="613.574219" xlink:href="#DejaVuSans-30"/>
     </g>
    </g>
    <g id="line2d_26">
     <path d="M 290.7575 98.604813 
L 310.7575 98.604813 
" style="fill:none;stroke:#bfbf00;stroke-linecap:square;stroke-width:1.5;"/>
    </g>
    <g id="line2d_27"/>
    <g id="text_20">
     <!-- Spline n = 20 -->
     <g transform="translate(318.7575 102.104813)scale(0.1 -0.1)">
      <use xlink:href="#DejaVuSans-53"/>
      <use x="63.476562" xlink:href="#DejaVuSans-70"/>
      <use x="126.953125" xlink:href="#DejaVuSans-6c"/>
      <use x="154.736328" xlink:href="#DejaVuSans-69"/>
      <use x="182.519531" xlink:href="#DejaVuSans-6e"/>
      <use x="245.898438" xlink:href="#DejaVuSans-65"/>
      <use x="307.421875" xlink:href="#DejaVuSans-20"/>
      <use x="339.208984" xlink:href="#DejaVuSans-6e"/>
      <use x="402.587891" xlink:href="#DejaVuSans-20"/>
      <use x="434.375" xlink:href="#DejaVuSans-3d"/>
      <use x="518.164062" xlink:href="#DejaVuSans-20"/>
      <use x="549.951172" xlink:href="#DejaVuSans-32"/>
      <use x="613.574219" xlink:href="#DejaVuSans-30"/>
     </g>
    </g>
   </g>
  </g>
 </g>
 <defs>
  <clipPath id="pbf4294485a">
   <rect height="266.112" width="357.12" x="57.6" y="41.472"/>
  </clipPath>
 </defs>
</svg>
